<svg xmlns="http://www.w3.org/2000/svg" viewBox="0 0 100 100" width="100" height="100">
<defs>
<linearGradient id="gr0c63" x1="0%" y1="0%" x2="4%" y2="71%"><stop offset="0%" stop-color="#b76666"/><stop offset="100%" stop-color="#81ca8d"/></linearGradient>
<linearGradient id="gr1cfa" x1="0%" y1="0%" x2="39%" y2="38%"><stop offset="0%" stop-color="#e74811"/><stop offset="100%" stop-color="#8d623c"/></linearGradient>
<linearGradient id="gr2bd5" x1="0%" y1="0%" x2="42%" y2="93%"><stop offset="0%" stop-color="#0e1b30"/><stop offset="100%" stop-color="#ab74cf"/></linearGradient>
<linearGradient id="gr3964" x1="0%" y1="0%" x2="21%" y2="96%"><stop offset="0%" stop-color="#544573"/><stop offset="100%" stop-color="#9d4c36"/></linearGradient>
</defs>
<rect width="100" height="100" fill="#ba6e57"/>
<rect x="71" y="14" width="15" height="27" rx="11" fill="#1244a1" opacity="0.59"/>
<ellipse cx="71" cy="90" rx="63" ry="55" fill="#5d3869" opacity="0.76"/>
<polygon points="99,22 25,76 11,22 9,80 27,90" fill="#c4069a" opacity="0.47"/>
<circle cx="70" cy="81" r="71" fill="#1b4978" opacity="0.71"/>
<ellipse cx="96" cy="31" rx="78" ry="37" fill="#de0e3e" opacity="0.11"/>
<ellipse cx="9" cy="48" rx="23" ry="12" fill="#3368a3" opacity="0.12"/>
<path d="M10,77 L54,37 Q46,9 4,75 Q84,31 70,37 L86,5 Z" fill="#7ea77c" opacity="0.56" stroke="none"/>
<circle cx="5" cy="48" r="42" fill="#44bec3" opacity="0.51"/>
<rect x="19" y="70" width="23" height="16" rx="7" fill="#220f71" opacity="0.25"/>
<path d="M7,50 L59,30 Q35,2 5,36 L85,16 L97,92 Q53,28 63,34 Z" fill="#b65d39" opacity="0.17" stroke="none"/>
<rect x="74" y="45" width="13" height="30" rx="6" fill="#dd4db0" opacity="0.73"/>
<rect x="46" y="25" width="18" height="34" rx="10" fill="#906358" opacity="0.13"/>
<polygon points="21,40 27,62 97,96 87,98 85,96 47,30 49,52 71,42 41,72" fill="#8e2e00" opacity="0.21"/>
<polygon points="31,34 41,16 75,10 33,24 79,98 53,16 7,78" fill="#1ff256" opacity="0.53"/>
<ellipse cx="82" cy="25" rx="88" ry="47" fill="#379e48" opacity="0.58"/>
<rect x="87" y="18" width="14" height="13" rx="11" fill="#8da695" opacity="0.45"/>
<ellipse cx="75" cy="82" rx="35" ry="50" fill="#d8d8dd" opacity="0.17"/>
<rect x="68" y="99" width="32" height="18" rx="8" fill="#3d885e" opacity="0.69"/>
<rect x="8" y="55" width="41" height="16" rx="0" fill="#15f3c6" opacity="0.48"/>
<circle cx="0" cy="67" r="43" fill="#a3cc2e" opacity="0.24"/>
<rect x="62" y="29" width="22" height="39" rx="6" fill="#d03fc4" opacity="0.51"/>
<rect x="2" y="57" width="19" height="27" rx="2" fill="#9597ec" opacity="0.22"/>
<polygon points="1,60 67,66 45,28 31,14 61,64 27,30 57,36 95,94 9,12" fill="#6df514" opacity="0.83"/>
<polygon points="55,2 9,0 23,34 41,16 43,70" fill="#4b84ca" opacity="0.19"/>
<rect x="14" y="53" width="25" height="42" rx="10" fill="#c27028" opacity="0.79"/>
<ellipse cx="6" cy="41" rx="72" ry="22" fill="#51d4d0" opacity="0.45"/>
<polygon points="90,77 8,35 70,77 40,75 34,89 76,35 70,85 76,83 94,41 80,83" fill="#b7323d" opacity="0.79"/>
<rect x="95" y="70" width="16" height="24" rx="11" fill="#d90315" opacity="0.28"/>
<polygon points="70,73 80,7 14,25 96,79 42,9 24,11" fill="#0fc55d" opacity="0.78"/>
<circle cx="95" cy="78" r="72" fill="#a744ed" opacity="0.78"/>
<rect x="41" y="64" width="35" height="33" rx="1" fill="#9407cb" opacity="0.46"/>
<path d="M29,24 C53,96 47,26 1,36 L45,20 L9,84 Q77,48 59,38 Q31,26 33,32 L41,88 Z" fill="#9160d3" opacity="0.21" stroke="none"/>
<ellipse cx="56" cy="51" rx="20" ry="21" fill="#7eab4a" opacity="0.57"/>
<rect x="37" y="24" width="12" height="38" rx="5" fill="#03aa5f" opacity="0.51"/>
<path d="M77,12 L49,32 C29,80 75,94 13,12 C33,24 19,6 81,8 C29,36 7,38 21,48 C41,4 99,26 21,52 Q77,64 63,2 Z" fill="#2955e7" opacity="0.40" stroke="none"/>
<polygon points="81,36 75,70 53,56 91,38 65,60" fill="#2e0998" opacity="0.58"/>
<rect x="52" y="63" width="34" height="37" rx="8" fill="#9630c6" opacity="0.52"/>
<ellipse cx="68" cy="87" rx="56" ry="26" fill="#2ba92e" opacity="0.27"/>
<rect x="1" y="52" width="37" height="11" rx="1" fill="#b57953" opacity="0.78"/>
<rect x="85" y="4" width="41" height="37" rx="5" fill="#a9035b" opacity="0.94"/>
<polygon points="56,31 18,45 36,67 50,9 0,7 82,97 20,3 46,65 20,51 54,57" fill="#55ce63" opacity="0.41"/>
<circle cx="97" cy="4" r="14" fill="#d8f57b" opacity="0.13"/>
<ellipse cx="27" cy="90" rx="17" ry="32" fill="#254a69" opacity="0.57"/>
<rect x="80" y="27" width="13" height="19" rx="8" fill="#a5209a" opacity="0.95"/>
<circle cx="48" cy="27" r="55" fill="#8c9382" opacity="0.69"/>
<rect x="42" y="45" width="30" height="22" rx="2" fill="#245378" opacity="0.16"/>
<circle cx="66" cy="33" r="61" fill="#c02220" opacity="0.85"/>
<circle cx="12" cy="23" r="23" fill="#7aafa6" opacity="0.39"/>
<circle cx="34" cy="29" r="33" fill="#75d17c" opacity="0.16"/>
<circle cx="12" cy="99" r="11" fill="#c24122" opacity="0.93"/>
<polygon points="97,32 91,14 69,0 23,70 41,8 71,82 89,0" fill="#1d0c18" opacity="0.33"/>
<rect x="20" y="67" width="28" height="21" rx="0" fill="#95e3da" opacity="0.90"/>
</svg>
