<svg xmlns="http://www.w3.org/2000/svg" viewBox="0 0 100 100" width="100" height="100">
<defs>
<linearGradient id="gr087d" x1="0%" y1="0%" x2="66%" y2="37%"><stop offset="0%" stop-color="#281fb8"/><stop offset="100%" stop-color="#13dfb7"/></linearGradient>
<linearGradient id="gr126c" x1="0%" y1="0%" x2="65%" y2="40%"><stop offset="0%" stop-color="#982adb"/><stop offset="100%" stop-color="#9f627e"/></linearGradient>
<linearGradient id="gr263f" x1="0%" y1="0%" x2="72%" y2="39%"><stop offset="0%" stop-color="#adce92"/><stop offset="100%" stop-color="#d29cc9"/></linearGradient>
<linearGradient id="gr31e6" x1="0%" y1="0%" x2="83%" y2="54%"><stop offset="0%" stop-color="#be800d"/><stop offset="100%" stop-color="#65a208"/></linearGradient>
</defs>
<rect width="100" height="100" fill="#909591"/>
<ellipse cx="17" cy="56" rx="27" ry="33" fill="#3b01eb" opacity="0.71"/>
<path d="M74,57 L98,37 L2,1 C66,41 52,91 18,89 Z" fill="#e6e8e4" opacity="0.11" stroke="none"/>
<ellipse cx="5" cy="84" rx="91" ry="22" fill="#8ea5e7" opacity="0.61"/>
<path d="M34,37 L50,29 Q38,85 4,91 L4,11 C88,47 70,89 92,71 L44,63 C0,59 58,9 12,47 L72,79 Z" fill="#e8d750" opacity="0.63" stroke="none"/>
<rect x="19" y="58" width="40" height="24" rx="7" fill="#0e4c61" opacity="0.19"/>
<rect x="91" y="86" width="32" height="40" rx="11" fill="#9a3829" opacity="0.14"/>
<ellipse cx="7" cy="10" rx="75" ry="15" fill="#ab9cf1" opacity="0.22"/>
<ellipse cx="48" cy="31" rx="68" ry="33" fill="#d1b842" opacity="0.41"/>
<circle cx="73" cy="76" r="32" fill="#c14037" opacity="0.39"/>
<polygon points="18,89 88,63 18,37 20,27 6,1 24,67 42,85 20,63" fill="#1ae445" opacity="0.40"/>
<ellipse cx="43" cy="74" rx="41" ry="58" fill="#720bd9" opacity="0.77"/>
<path d="M72,51 L84,19 L32,75 Q4,55 78,85 C34,45 56,7 74,77 Q38,9 16,59 L40,71 Z" fill="#cfe1ca" opacity="0.17" stroke="none"/>
<ellipse cx="35" cy="2" rx="23" ry="22" fill="#562285" opacity="0.88"/>
<polygon points="43,2 69,8 67,82 13,68 91,22 97,84 75,30" fill="#eebfa6" opacity="0.92"/>
<circle cx="86" cy="57" r="33" fill="#5f9c18" opacity="0.75"/>
<polygon points="99,58 41,64 75,50 5,76 55,2 53,36 15,78 85,52 63,42" fill="#8e03de" opacity="0.26"/>
<ellipse cx="30" cy="1" rx="90" ry="8" fill="#225f44" opacity="0.72"/>
<circle cx="91" cy="22" r="28" fill="#fb0601" opacity="0.20"/>
<path d="M65,60 Q17,88 31,70 C83,78 29,20 87,86 L31,58 Z" fill="#dc173f" opacity="0.29" stroke="none"/>
<polygon points="1,60 91,98 69,4 27,2 97,12 31,2 37,80" fill="#4afd58" opacity="0.75"/>
<rect x="68" y="15" width="30" height="32" rx="4" fill="#faf71a" opacity="0.94"/>
<ellipse cx="68" cy="43" rx="96" ry="12" fill="#1d3a02" opacity="0.53"/>
<path d="M93,24 C73,64 75,78 97,68 L21,24 C85,80 55,2 81,80 Z" fill="#d130f7" opacity="0.77" stroke="none"/>
<rect x="84" y="31" width="14" height="15" rx="8" fill="#4227a2" opacity="0.23"/>
<path d="M64,63 C68,27 90,21 4,23 C40,87 46,97 76,75 C52,67 22,81 24,55 Z" fill="#127b8a" opacity="0.49" stroke="none"/>
<ellipse cx="47" cy="62" rx="55" ry="19" fill="#bf3dfd" opacity="0.71"/>
<rect x="20" y="79" width="23" height="17" rx="0" fill="#c68dfe" opacity="0.86"/>
<ellipse cx="96" cy="95" rx="48" ry="53" fill="#5fad66" opacity="0.21"/>
<ellipse cx="49" cy="72" rx="41" ry="26" fill="#57db6b" opacity="0.58"/>
<polygon points="25,80 35,70 69,4 55,78 61,32 51,98 77,16" fill="#4a3864" opacity="0.16"/>
<ellipse cx="4" cy="47" rx="78" ry="55" fill="#a7ad06" opacity="0.69"/>
<path d="M45,12 C73,12 11,10 57,40 C17,56 59,10 41,0 Q37,32 67,86 C27,14 81,16 51,22 L63,46 C67,54 93,20 3,74 L15,34 Z" fill="#95558b" opacity="0.44" stroke="none"/>
<circle cx="18" cy="69" r="63" fill="#e223c0" opacity="0.15"/>
<circle cx="48" cy="99" r="25" fill="#441c46" opacity="0.94"/>
<rect x="38" y="97" width="13" height="35" rx="6" fill="#b9911c" opacity="0.68"/>
<rect x="82" y="69" width="36" height="31" rx="2" fill="#c11444" opacity="0.83"/>
<circle cx="62" cy="5" r="53" fill="#20fc6c" opacity="0.78"/>
<polygon points="59,98 25,32 31,10 89,64 79,86 41,84 39,38" fill="#d2a892" opacity="0.52"/>
<path d="M74,37 Q22,9 8,15 C20,71 70,9 64,23 L64,67 Q0,11 74,13 Q58,61 0,3 Z" fill="#3552e4" opacity="0.75" stroke="none"/>
<circle cx="59" cy="26" r="72" fill="#b660bd" opacity="0.93"/>
<path d="M1,56 L57,16 Q33,88 47,70 Q71,98 45,80 L81,48 Q1,72 87,90 Z" fill="#f8411b" opacity="0.94" stroke="none"/>
<rect x="46" y="13" width="15" height="10" rx="10" fill="#36244c" opacity="0.19"/>
<path d="M98,13 Q42,97 4,31 C52,39 26,33 16,75 L32,15 C88,3 82,1 92,55 L60,75 C76,39 66,53 80,91 Q64,31 82,17 Z" fill="#800d74" opacity="0.29" stroke="none"/>
<rect x="69" y="88" width="29" height="30" rx="9" fill="#0f5973" opacity="0.80"/>
<polygon points="36,67 86,61 88,47 38,57 44,75 90,49 4,51 2,97" fill="#5ee77b" opacity="0.21"/>
<polygon points="4,63 54,61 12,79 54,89 40,51 2,1 88,3 94,25 36,3 82,45" fill="#00d4ef" opacity="0.26"/>
</svg>
