<svg xmlns="http://www.w3.org/2000/svg" viewBox="0 0 100 100" width="100" height="100">
<defs>
<linearGradient id="gr0270" x1="0%" y1="0%" x2="85%" y2="52%"><stop offset="0%" stop-color="#efc30f"/><stop offset="100%" stop-color="#cad522"/></linearGradient>
<linearGradient id="gr17b3" x1="0%" y1="0%" x2="4%" y2="39%"><stop offset="0%" stop-color="#3fb976"/><stop offset="100%" stop-color="#16625d"/></linearGradient>
<linearGradient id="gr290a" x1="0%" y1="0%" x2="7%" y2="18%"><stop offset="0%" stop-color="#5df4e1"/><stop offset="100%" stop-color="#bf08cc"/></linearGradient>
<linearGradient id="gr3da5" x1="0%" y1="0%" x2="50%" y2="25%"><stop offset="0%" stop-color="#8962c0"/><stop offset="100%" stop-color="#81771f"/></linearGradient>
</defs>
<rect width="100" height="100" fill="#a581f4"/>
<polygon points="87,18 93,88 71,66 21,16 43,78" fill="#a6a346" opacity="0.65"/>
<circle cx="78" cy="29" r="43" fill="#fc8344" opacity="0.44"/>
<rect x="24" y="87" width="38" height="29" rx="0" fill="#be0aaa" opacity="0.34"/>
<path d="M72,27 Q40,51 62,17 Q22,41 24,99 L4,95 C0,7 94,41 24,19 Z" fill="#52bf92" opacity="0.73" stroke="none"/>
<ellipse cx="19" cy="90" rx="61" ry="50" fill="#7fabe5" opacity="0.79"/>
<circle cx="76" cy="35" r="5" fill="#f55286" opacity="0.92"/>
<rect x="78" y="25" width="21" height="28" rx="2" fill="#04455c" opacity="0.57"/>
<ellipse cx="54" cy="45" rx="30" ry="25" fill="#a25084" opacity="0.60"/>
<path d="M75,10 Q59,86 89,8 Q65,80 19,38 C27,10 49,48 75,30 L11,70 L63,30 C31,54 37,32 59,38 Z" fill="#f27441" opacity="0.75" stroke="none"/>
<path d="M46,69 L38,61 L82,57 Q70,73 80,35 Q4,7 34,33 Z" fill="#91bc74" opacity="0.78" stroke="none"/>
<path d="M57,64 C17,8 39,30 77,8 C49,28 91,50 77,8 C29,76 63,98 17,16 C73,28 55,82 73,0 L53,72 Q73,16 59,14 Z" fill="#bef85b" opacity="0.83" stroke="none"/>
<rect x="42" y="9" width="39" height="17" rx="6" fill="#1a4fdc" opacity="0.53"/>
<ellipse cx="42" cy="85" rx="56" ry="54" fill="#f9ab04" opacity="0.90"/>
<ellipse cx="63" cy="78" rx="87" ry="10" fill="#5ba8c1" opacity="0.68"/>
<polygon points="87,18 73,40 79,10 69,72 63,74" fill="#fd3152" opacity="0.45"/>
<rect x="30" y="13" width="25" height="12" rx="2" fill="#44b770" opacity="0.33"/>
<rect x="50" y="13" width="41" height="18" rx="2" fill="#a50518" opacity="0.34"/>
<rect x="70" y="41" width="18" height="10" rx="6" fill="#f707c0" opacity="0.81"/>
<ellipse cx="50" cy="93" rx="20" ry="6" fill="#715f68" opacity="0.38"/>
<path d="M71,58 L87,22 C27,94 1,52 59,38 Q7,98 17,56 Q77,12 67,30 C51,14 21,56 67,70 C59,90 61,28 79,14 Z" fill="#95f835" opacity="0.28" stroke="none"/>
<path d="M6,89 C74,13 36,75 14,41 Q22,73 20,63 C4,47 46,53 48,23 C84,59 86,77 16,59 L68,39 L32,39 C80,39 34,29 68,99 Z" fill="#1db30c" opacity="0.69" stroke="none"/>
<rect x="23" y="78" width="32" height="34" rx="3" fill="#e61595" opacity="0.49"/>
<polygon points="18,69 28,23 82,53 80,87 18,13 32,71 86,1 0,23" fill="#3f27dd" opacity="0.69"/>
<circle cx="91" cy="78" r="68" fill="#6322f1" opacity="0.55"/>
<circle cx="57" cy="80" r="48" fill="#cb60af" opacity="0.74"/>
<circle cx="35" cy="2" r="42" fill="#598afd" opacity="0.83"/>
<ellipse cx="61" cy="64" rx="51" ry="45" fill="#64495b" opacity="0.32"/>
<rect x="54" y="13" width="39" height="22" rx="10" fill="#388814" opacity="0.86"/>
<rect x="70" y="73" width="40" height="35" rx="2" fill="#d6ea3c" opacity="0.42"/>
<path d="M50,57 C66,97 20,27 22,25 C78,17 76,91 66,81 L58,53 C14,5 4,7 98,13 Q46,1 92,91 Z" fill="#a99164" opacity="0.72" stroke="none"/>
<rect x="27" y="34" width="41" height="15" rx="11" fill="#b911c1" opacity="0.76"/>
<ellipse cx="7" cy="14" rx="51" ry="46" fill="#fda989" opacity="0.37"/>
<circle cx="24" cy="63" r="19" fill="#ffc83a" opacity="0.23"/>
<rect x="86" y="81" width="37" height="42" rx="2" fill="#591c70" opacity="0.42"/>
<ellipse cx="82" cy="37" rx="52" ry="27" fill="#460a18" opacity="0.60"/>
<path d="M87,46 C59,18 89,76 7,18 C23,62 33,84 31,90 Q11,26 33,12 L17,72 L9,32 Z" fill="#54ffa5" opacity="0.43" stroke="none"/>
<polygon points="23,30 69,52 15,86 25,40 83,66 33,92 47,42 69,28 23,62" fill="#7f9992" opacity="0.86"/>
<path d="M30,61 C26,37 64,15 46,29 L34,65 C18,69 52,59 30,25 C86,97 60,3 26,33 C94,13 80,47 30,65 C38,85 32,91 50,9 Q98,97 96,75 Z" fill="#bf6b58" opacity="0.33" stroke="none"/>
<path d="M47,78 Q11,66 9,40 Q61,72 39,66 Q19,26 9,68 C65,56 75,62 93,52 C49,80 23,66 1,4 L61,80 Z" fill="#a1ce95" opacity="0.93" stroke="none"/>
<circle cx="20" cy="95" r="17" fill="#ee8b2a" opacity="0.29"/>
<circle cx="98" cy="41" r="33" fill="#b25be0" opacity="0.55"/>
<circle cx="64" cy="43" r="65" fill="#abeb66" opacity="0.18"/>
<circle cx="62" cy="1" r="9" fill="#237f3c" opacity="0.43"/>
<polygon points="75,6 9,88 75,46 49,44 59,22 73,44 47,50 21,80 95,42" fill="#b250e2" opacity="0.56"/>
<path d="M90,17 Q70,89 52,79 L76,75 Q60,23 82,25 Q10,85 16,83 C56,87 46,81 96,19 Q20,47 98,17 L62,1 Z" fill="#e37828" opacity="0.78" stroke="none"/>
<ellipse cx="37" cy="16" rx="17" ry="43" fill="#126ab3" opacity="0.61"/>
<polygon points="69,8 67,14 57,48 11,46 1,24 35,62 85,92 47,78 61,16" fill="#e387cc" opacity="0.72"/>
<circle cx="56" cy="95" r="67" fill="#fbd9c2" opacity="0.59"/>
<path d="M38,25 L30,61 C62,1 0,55 54,29 Q50,89 56,39 L20,95 Q8,39 62,17 Q62,93 36,75 L32,79 Z" fill="#6897b8" opacity="0.21" stroke="none"/>
<circle cx="75" cy="22" r="36" fill="#026de9" opacity="0.17"/>
<path d="M81,16 Q1,16 55,50 C31,18 57,84 39,18 Q95,78 29,80 L37,96 L5,84 Q13,52 7,70 Z" fill="#d6bde7" opacity="0.15" stroke="none"/>
</svg>
