<svg xmlns="http://www.w3.org/2000/svg" viewBox="0 0 1200 400" width="1200" height="400">
<defs>
<linearGradient id="gr0586" x1="0%" y1="0%" x2="23%" y2="46%"><stop offset="0%" stop-color="#f93f2d"/><stop offset="100%" stop-color="#a816a8"/></linearGradient>
<linearGradient id="gr16b1" x1="0%" y1="0%" x2="70%" y2="17%"><stop offset="0%" stop-color="#07c05c"/><stop offset="100%" stop-color="#74600b"/></linearGradient>
<linearGradient id="gr2b50" x1="0%" y1="0%" x2="41%" y2="20%"><stop offset="0%" stop-color="#c0a66f"/><stop offset="100%" stop-color="#5ea102"/></linearGradient>
<linearGradient id="gr3113" x1="0%" y1="0%" x2="8%" y2="11%"><stop offset="0%" stop-color="#cd5356"/><stop offset="100%" stop-color="#7672bd"/></linearGradient>
</defs>
<rect width="1200" height="400" fill="#1e20ea"/>
<ellipse cx="1022" cy="213" rx="14" ry="18" fill="#37fbac" opacity="0.41"/>
<path d="M131,6 Q567,10 417,12 Q549,16 159,146 C339,230 733,264 471,74 Z" fill="#4ba309" opacity="0.82" stroke="none"/>
<ellipse cx="926" cy="389" rx="82" ry="33" fill="#c1ae4c" opacity="0.73"/>
<rect x="467" y="182" width="135" height="15" rx="7" fill="#77bc29" opacity="0.86"/>
<ellipse cx="267" cy="286" rx="65" ry="33" fill="#39a0f1" opacity="0.35"/>
<circle cx="52" cy="179" r="15" fill="#9d4c42" opacity="0.58"/>
<ellipse cx="74" cy="81" rx="12" ry="36" fill="#655638" opacity="0.81"/>
<polygon points="194,281 196,67 886,269 200,167 314,337 428,395 270,341 1040,351" fill="#482845" opacity="0.89"/>
<ellipse cx="803" cy="374" rx="99" ry="28" fill="#628fd9" opacity="0.80"/>
<rect x="284" y="331" width="184" height="88" rx="0" fill="#f7f5ca" opacity="0.33"/>
<rect x="468" y="387" width="352" height="86" rx="4" fill="#ea0eb2" opacity="0.40"/>
<rect x="60" y="11" width="344" height="56" rx="4" fill="#47449a" opacity="0.89"/>
<ellipse cx="708" cy="323" rx="28" ry="11" fill="#733782" opacity="0.13"/>
<rect x="769" y="284" width="37" height="91" rx="5" fill="#a3b477" opacity="0.28"/>
<ellipse cx="89" cy="388" rx="11" ry="39" fill="#a2a2ff" opacity="0.84"/>
<polygon points="1073,332 1163,334 37,0 1071,274 1097,276" fill="#c349c8" opacity="0.78"/>
<path d="M120,183 Q1004,123 286,293 L674,281 L998,157 L218,225 L1198,181 Z" fill="#48c976" opacity="0.86" stroke="none"/>
<path d="M585,68 L893,40 Q497,76 859,142 L559,50 C19,326 173,104 7,106 L123,46 Z" fill="#74bf2f" opacity="0.39" stroke="none"/>
<circle cx="946" cy="393" r="61" fill="#661bb0" opacity="0.33"/>
<polygon points="663,234 753,12 1195,46 613,288 511,194 153,388 691,150" fill="#32a8b6" opacity="0.39"/>
<polygon points="1041,92 491,382 1061,240 255,2 57,20 451,214 877,376" fill="#ab5ba8" opacity="0.11"/>
<polygon points="1195,62 437,128 799,50 649,340 35,166 221,40 199,362 577,92 315,382" fill="#69edea" opacity="0.15"/>
<ellipse cx="34" cy="9" rx="14" ry="13" fill="#0394f0" opacity="0.82"/>
<rect x="215" y="266" width="27" height="124" rx="11" fill="#a61edd" opacity="0.64"/>
<circle cx="719" cy="82" r="36" fill="#885a25" opacity="0.11"/>
<ellipse cx="797" cy="232" rx="59" ry="58" fill="#ed0d43" opacity="0.17"/>
<path d="M718,197 Q482,377 996,275 C296,183 762,305 348,235 C304,111 642,297 276,83 Z" fill="#673a9c" opacity="0.63" stroke="none"/>
<ellipse cx="119" cy="282" rx="91" ry="26" fill="#3d298d" opacity="0.68"/>
<path d="M1184,127 C260,3 470,109 88,151 L332,187 Q1152,351 1106,265 Q806,173 536,375 Z" fill="#ef0dce" opacity="0.26" stroke="none"/>
<ellipse cx="139" cy="62" rx="95" ry="31" fill="#37f431" opacity="0.50"/>
<rect x="436" y="163" width="240" height="10" rx="4" fill="#b36482" opacity="0.46"/>
<circle cx="876" cy="123" r="37" fill="#8b546a" opacity="0.82"/>
<ellipse cx="450" cy="185" rx="42" ry="56" fill="#c84b20" opacity="0.80"/>
<rect x="247" y="266" width="27" height="55" rx="11" fill="#2d2fcd" opacity="0.63"/>
<polygon points="754,169 436,147 1158,61 424,23 842,241 412,379" fill="#618915" opacity="0.81"/>
<polygon points="162,169 516,211 1126,221 680,55 1098,113 1100,187 894,133 240,319" fill="#68d6a5" opacity="0.76"/>
<circle cx="707" cy="54" r="48" fill="#c88c39" opacity="0.90"/>
<path d="M945,44 Q197,256 911,34 L1043,6 C103,138 65,236 1051,78 Q495,338 1017,212 Q973,328 391,74 Z" fill="#6cc5b7" opacity="0.85" stroke="none"/>
<polygon points="949,16 591,274 185,324 595,150 877,152 999,346 145,332" fill="#1a430c" opacity="0.44"/>
<rect x="352" y="223" width="316" height="104" rx="8" fill="#60efee" opacity="0.40"/>
<ellipse cx="472" cy="23" rx="98" ry="37" fill="#b64d56" opacity="0.93"/>
<circle cx="949" cy="48" r="16" fill="#9de51b" opacity="0.79"/>
<ellipse cx="659" cy="214" rx="87" ry="15" fill="#18b509" opacity="0.62"/>
<path d="M444,171 L544,223 L436,179 Q840,263 298,65 L94,37 Z" fill="#bed1ba" opacity="0.42" stroke="none"/>
<rect x="1065" y="20" width="301" height="130" rx="1" fill="#02589f" opacity="0.81"/>
<polygon points="492,363 286,389 256,143 450,121 84,291 262,29" fill="#3dcc27" opacity="0.46"/>
<path d="M161,364 Q1045,336 735,98 Q403,102 157,280 Q1057,268 1195,238 Q991,322 649,100 Q813,328 247,218 Z" fill="#262637" opacity="0.19" stroke="none"/>
<rect x="1102" y="165" width="42" height="138" rx="6" fill="#55ad8c" opacity="0.19"/>
<circle cx="598" cy="173" r="25" fill="#d0beb4" opacity="0.11"/>
<rect x="636" y="123" width="344" height="92" rx="4" fill="#185e9a" opacity="0.84"/>
<ellipse cx="148" cy="19" rx="12" ry="9" fill="#679182" opacity="0.60"/>
<polygon points="1164,43 638,277 688,399 818,233 420,291 470,77" fill="#c53677" opacity="0.26"/>
<polygon points="28,315 350,213 592,15 1026,281 708,179 870,125 584,391 570,129" fill="#d16487" opacity="0.70"/>
<path d="M933,208 C217,388 19,134 813,232 C33,44 459,350 965,320 C393,388 771,214 1005,56 C385,204 523,78 165,304 Q569,164 755,246 Z" fill="#fc9fbb" opacity="0.44" stroke="none"/>
<polygon points="209,364 347,270 549,112 943,50 409,100" fill="#e6e508" opacity="0.14"/>
<circle cx="920" cy="167" r="51" fill="#16a2b6" opacity="0.56"/>
<rect x="318" y="277" width="378" height="111" rx="6" fill="#16180c" opacity="0.14"/>
<rect x="390" y="45" width="130" height="120" rx="6" fill="#1e7934" opacity="0.29"/>
<ellipse cx="1038" cy="181" rx="72" ry="8" fill="#9aff5c" opacity="0.69"/>
<ellipse cx="451" cy="342" rx="21" ry="30" fill="#7cc779" opacity="0.13"/>
<polygon points="75,398 853,0 1055,322 569,4 1059,86 1181,200 791,394" fill="#dd87ea" opacity="0.48"/>
<circle cx="462" cy="261" r="11" fill="#1f09fc" opacity="0.32"/>
<rect x="932" y="195" width="16" height="59" rx="0" fill="#b915a2" opacity="0.19"/>
<circle cx="668" cy="283" r="33" fill="#67298a" opacity="0.56"/>
<path d="M610,89 C582,237 312,279 122,289 Q430,261 944,367 C292,291 1190,93 920,199 Z" fill="#e68f40" opacity="0.73" stroke="none"/>
<polygon points="366,213 1120,191 898,297 740,291 1062,93 696,183" fill="#eb9081" opacity="0.58"/>
<polygon points="622,229 752,287 146,313 484,323 310,29 936,215 170,209 652,75" fill="#2a6911" opacity="0.57"/>
<rect x="351" y="82" width="243" height="105" rx="11" fill="#156a65" opacity="0.89"/>
<rect x="471" y="266" width="59" height="98" rx="11" fill="#a916ad" opacity="0.13"/>
<circle cx="543" cy="210" r="16" fill="#3a4bf5" opacity="0.60"/>
<ellipse cx="1021" cy="312" rx="49" ry="14" fill="#f9ec93" opacity="0.87"/>
<rect x="270" y="133" width="346" height="90" rx="6" fill="#8da52c" opacity="0.46"/>
<path d="M886,93 Q746,81 844,235 C48,15 818,345 372,275 C1176,151 138,17 1148,283 L1072,351 Q500,227 358,45 Q410,289 124,379 Z" fill="#a7aa54" opacity="0.50" stroke="none"/>
<rect x="831" y="354" width="323" height="65" rx="7" fill="#fa3a35" opacity="0.10"/>
<circle cx="615" cy="394" r="32" fill="#77e07d" opacity="0.59"/>
<circle cx="933" cy="48" r="36" fill="#4f12db" opacity="0.67"/>
<circle cx="611" cy="182" r="64" fill="#9044c9" opacity="0.92"/>
<path d="M225,124 Q245,224 255,18 Q947,358 557,216 Q257,284 75,110 C1023,338 521,84 259,6 L119,42 Q1003,142 469,160 Z" fill="#0dc5c7" opacity="0.13" stroke="none"/>
<rect x="628" y="243" width="224" height="30" rx="0" fill="#2f5502" opacity="0.55"/>
<ellipse cx="860" cy="331" rx="94" ry="51" fill="#0554ea" opacity="0.59"/>
<polygon points="532,195 406,285 920,359 842,17 172,347 734,69" fill="#04367f" opacity="0.17"/>
<circle cx="441" cy="308" r="30" fill="#60868f" opacity="0.88"/>
<rect x="1095" y="314" width="331" height="94" rx="7" fill="#fea9dd" opacity="0.41"/>
<rect x="895" y="194" width="339" height="71" rx="11" fill="#f24525" opacity="0.95"/>
<path d="M1159,74 L347,78 C1007,274 89,308 323,22 L967,58 L1163,334 C543,370 697,84 3,134 C711,202 1169,284 1163,110 L383,386 Z" fill="#e1496d" opacity="0.92" stroke="none"/>
<rect x="22" y="365" width="402" height="42" rx="2" fill="#468b64" opacity="0.79"/>
<polygon points="21,368 1007,386 233,276 227,86 349,200 695,42 945,76" fill="#75578c" opacity="0.26"/>
<polygon points="271,130 473,164 995,166 349,312 103,186" fill="#a3986e" opacity="0.56"/>
<rect x="654" y="389" width="154" height="116" rx="2" fill="#89fa2c" opacity="0.49"/>
<ellipse cx="870" cy="333" rx="16" ry="22" fill="#2e9f54" opacity="0.15"/>
<circle cx="891" cy="302" r="50" fill="#975c51" opacity="0.40"/>
<ellipse cx="1161" cy="308" rx="11" ry="35" fill="#f0970f" opacity="0.35"/>
<polygon points="1121,236 747,78 69,0 239,210 1129,132" fill="#bfa418" opacity="0.24"/>
<circle cx="168" cy="39" r="41" fill="#e4a746" opacity="0.78"/>
<polygon points="389,48 319,114 953,164 931,38 77,56 311,202 449,220" fill="#7c041c" opacity="0.66"/>
<rect x="368" y="31" width="284" height="100" rx="4" fill="#46477e" opacity="0.92"/>
<path d="M968,199 Q700,251 654,85 C466,121 772,371 374,77 C762,161 1068,187 14,341 L1186,137 Q822,365 1000,103 C284,59 174,53 320,207 C404,339 166,125 1048,279 Z" fill="#5696e6" opacity="0.92" stroke="none"/>
<polygon points="174,373 832,319 850,121 100,115 310,13 1144,183 314,369 412,283" fill="#7ae841" opacity="0.66"/>
<polygon points="1026,25 548,115 902,13 1176,295 858,145 540,347 1102,293 64,175 162,201 52,115" fill="#011095" opacity="0.59"/>
<path d="M951,298 Q587,158 181,0 C425,212 451,294 861,296 L497,28 Z" fill="#b6626d" opacity="0.37" stroke="none"/>
<rect x="80" y="239" width="156" height="64" rx="4" fill="#3055fe" opacity="0.30"/>
<ellipse cx="584" cy="311" rx="22" ry="38" fill="#027566" opacity="0.85"/>
<ellipse cx="709" cy="32" rx="17" ry="44" fill="#d8c36b" opacity="0.62"/>
<ellipse cx="198" cy="125" rx="96" ry="17" fill="#8dc064" opacity="0.35"/>
<circle cx="843" cy="366" r="14" fill="#3777a1" opacity="0.44"/>
<path d="M489,116 L1133,264 C817,12 763,158 1157,272 Q345,228 1123,294 C839,234 497,220 331,318 Z" fill="#2073df" opacity="0.60" stroke="none"/>
<circle cx="690" cy="25" r="39" fill="#9cdf20" opacity="0.51"/>
<rect x="104" y="263" width="388" height="54" rx="0" fill="#9144a6" opacity="0.57"/>
<polygon points="543,178 41,100 179,102 221,296 263,10 737,12 523,62 597,176 175,322" fill="#69390e" opacity="0.28"/>
<circle cx="1078" cy="253" r="61" fill="#5f5af4" opacity="0.45"/>
<ellipse cx="1116" cy="299" rx="58" ry="47" fill="#fdc8da" opacity="0.71"/>
<circle cx="1017" cy="228" r="50" fill="#b6e42f" opacity="0.56"/>
<circle cx="119" cy="298" r="30" fill="#76927d" opacity="0.29"/>
<polygon points="544,351 50,393 948,371 662,13 840,55 602,209" fill="#31b4db" opacity="0.55"/>
<ellipse cx="1173" cy="336" rx="71" ry="40" fill="#5f0beb" opacity="0.54"/>
<ellipse cx="774" cy="29" rx="32" ry="19" fill="#88dae4" opacity="0.56"/>
<polygon points="462,85 384,63 1122,57 516,195 374,29 472,247" fill="#fb6c21" opacity="0.21"/>
<ellipse cx="1115" cy="62" rx="87" ry="43" fill="#dfacb1" opacity="0.11"/>
<path d="M404,195 Q472,135 186,33 Q990,101 672,31 Q1092,179 326,365 Z" fill="#4faf02" opacity="0.88" stroke="none"/>
<path d="M289,44 Q21,272 991,338 L227,294 L423,74 C443,62 933,96 127,354 L1027,54 Z" fill="#416807" opacity="0.89" stroke="none"/>
<rect x="522" y="1" width="246" height="105" rx="6" fill="#2aa5e8" opacity="0.42"/>
<circle cx="930" cy="137" r="55" fill="#80c290" opacity="0.30"/>
<ellipse cx="776" cy="295" rx="38" ry="44" fill="#4c0096" opacity="0.70"/>
<polygon points="720,143 1154,121 916,307 1126,125 520,135 186,17 828,347 238,277 1120,79 946,105" fill="#ccdd5b" opacity="0.90"/>
<ellipse cx="13" cy="168" rx="39" ry="20" fill="#4d4173" opacity="0.65"/>
<circle cx="1198" cy="117" r="51" fill="#e5018c" opacity="0.70"/>
<polygon points="1155,150 125,216 791,282 465,236 331,238" fill="#9b9cb2" opacity="0.55"/>
<path d="M450,121 C54,109 1032,327 618,65 Q398,245 1152,335 C52,67 1062,93 360,279 L940,139 L640,287 L324,3 L184,327 Z" fill="#471bd0" opacity="0.49" stroke="none"/>
<ellipse cx="75" cy="14" rx="95" ry="55" fill="#a83ae1" opacity="0.48"/>
<circle cx="388" cy="3" r="69" fill="#b2f7f2" opacity="0.73"/>
<ellipse cx="234" cy="241" rx="36" ry="27" fill="#e84868" opacity="0.24"/>
<rect x="47" y="18" width="19" height="59" rx="11" fill="#58e535" opacity="0.62"/>
<ellipse cx="791" cy="122" rx="93" ry="59" fill="#abeb7d" opacity="0.27"/>
<circle cx="64" cy="399" r="31" fill="#bc817e" opacity="0.78"/>
</svg>
