<svg xmlns="http://www.w3.org/2000/svg" viewBox="0 0 1200 400" width="1200" height="400">
<defs>
<linearGradient id="gr035f" x1="0%" y1="0%" x2="80%" y2="95%"><stop offset="0%" stop-color="#502932"/><stop offset="100%" stop-color="#ccf6e9"/></linearGradient>
<linearGradient id="gr1686" x1="0%" y1="0%" x2="79%" y2="10%"><stop offset="0%" stop-color="#fe6c2d"/><stop offset="100%" stop-color="#d95fa8"/></linearGradient>
<linearGradient id="gr23b1" x1="0%" y1="0%" x2="46%" y2="57%"><stop offset="0%" stop-color="#d1195c"/><stop offset="100%" stop-color="#23e50b"/></linearGradient>
<linearGradient id="gr3450" x1="0%" y1="0%" x2="17%" y2="28%"><stop offset="0%" stop-color="#2dfb6f"/><stop offset="100%" stop-color="#c9f202"/></linearGradient>
</defs>
<rect width="1200" height="400" fill="#5ce613"/>
<circle cx="999" cy="202" r="46" fill="#7adfbd" opacity="0.22"/>
<path d="M789,80 C1001,324 867,278 333,280 L1137,172 C597,80 783,82 345,132 C1101,104 1111,394 337,204 Z" fill="#fe081b" opacity="0.39" stroke="none"/>
<polygon points="575,146 649,228 323,150 861,264 967,298 513,188 171,286" fill="#640a5e" opacity="0.86"/>
<ellipse cx="978" cy="377" rx="72" ry="23" fill="#42cd90" opacity="0.78"/>
<circle cx="663" cy="298" r="18" fill="#9615fd" opacity="0.52"/>
<path d="M981,240 Q937,388 915,86 Q807,218 1137,124 L549,48 Q201,340 515,246 Q839,138 657,76 Q693,96 223,194 Z" fill="#e2bc5b" opacity="0.82" stroke="none"/>
<ellipse cx="134" cy="109" rx="90" ry="9" fill="#e00db4" opacity="0.85"/>
<rect x="427" y="30" width="95" height="84" rx="7" fill="#504831" opacity="0.29"/>
<ellipse cx="1123" cy="150" rx="65" ry="49" fill="#6badf9" opacity="0.34"/>
<rect x="796" y="187" width="216" height="38" rx="4" fill="#dcf86a" opacity="0.46"/>
<polygon points="67,166 333,344 55,10 1041,28 1019,366" fill="#0f6552" opacity="0.46"/>
<path d="M738,73 L742,29 C1018,1 300,331 494,117 Q2,329 228,355 L808,311 Q204,11 174,213 Z" fill="#26cb70" opacity="0.66" stroke="none"/>
<circle cx="201" cy="164" r="6" fill="#71142f" opacity="0.84"/>
<ellipse cx="647" cy="298" rx="19" ry="9" fill="#e3427d" opacity="0.68"/>
<polygon points="383,274 185,244 1155,38 333,296 711,362 17,220 235,382 293,320 687,226" fill="#f8d47e" opacity="0.34"/>
<ellipse cx="998" cy="29" rx="80" ry="16" fill="#3ecae4" opacity="0.67"/>
<circle cx="715" cy="254" r="72" fill="#b31c21" opacity="0.81"/>
<polygon points="484,35 294,173 200,295 282,273 812,43 110,261 320,383 834,393" fill="#9f545f" opacity="0.40"/>
<ellipse cx="557" cy="104" rx="69" ry="11" fill="#8b1713" opacity="0.30"/>
<polygon points="1157,128 767,210 937,164 1043,358 589,264 711,330 449,76 1099,350 1061,208" fill="#95e9ac" opacity="0.78"/>
<ellipse cx="612" cy="67" rx="98" ry="59" fill="#638ca2" opacity="0.85"/>
<circle cx="145" cy="332" r="10" fill="#086a17" opacity="0.70"/>
<rect x="447" y="2" width="387" height="18" rx="11" fill="#4ce725" opacity="0.25"/>
<polygon points="1034,385 588,379 782,293 336,63 1074,233 1044,115" fill="#902b6d" opacity="0.80"/>
<polygon points="74,17 684,11 734,293 656,239 242,281 612,19 710,173 536,23" fill="#f96efd" opacity="0.46"/>
<ellipse cx="779" cy="62" rx="89" ry="41" fill="#221411" opacity="0.37"/>
<path d="M820,323 C680,327 842,257 1068,363 L288,287 C212,291 870,13 248,343 C988,299 638,293 800,303 Q948,83 1030,189 Q266,241 764,155 L816,271 Z" fill="#23d7e2" opacity="0.60" stroke="none"/>
<circle cx="595" cy="390" r="46" fill="#324d89" opacity="0.64"/>
<polygon points="572,363 734,261 112,191 994,73 564,243 902,157 904,279 858,305 908,91 350,293" fill="#719887" opacity="0.53"/>
<polygon points="436,291 646,77 424,183 170,1 892,299 62,373 720,127 306,185" fill="#b83d1f" opacity="0.90"/>
<circle cx="189" cy="280" r="12" fill="#845bd3" opacity="0.35"/>
<path d="M91,318 Q1039,354 1193,20 L1133,360 L817,172 L421,256 C633,276 819,294 157,328 Q65,76 1179,158 Z" fill="#0c3001" opacity="0.25" stroke="none"/>
<polygon points="681,116 531,390 909,88 1127,298 433,204 715,366 677,240 287,178 425,340" fill="#794a00" opacity="0.11"/>
<path d="M696,279 C236,107 14,245 432,255 L308,19 C808,135 778,33 556,27 L1088,31 Q20,67 822,301 Z" fill="#1e2e56" opacity="0.61" stroke="none"/>
<path d="M129,220 L213,48 C841,292 1187,326 1165,168 L161,60 L757,16 L873,244 L1149,344 Z" fill="#a5ab17" opacity="0.70" stroke="none"/>
<path d="M828,107 L352,255 C84,115 934,93 856,23 C620,11 1198,309 1136,143 L1172,35 C56,215 426,305 1020,43 Z" fill="#b63f2a" opacity="0.91" stroke="none"/>
<circle cx="847" cy="114" r="14" fill="#53fe65" opacity="0.89"/>
<polygon points="408,151 826,17 508,107 46,213 144,63 818,297 1076,35 70,269 56,167 10,177" fill="#bd3f83" opacity="0.61"/>
<ellipse cx="885" cy="32" rx="63" ry="17" fill="#48529b" opacity="0.73"/>
<path d="M1078,365 L490,385 Q814,213 48,159 L852,83 C824,391 1066,145 972,283 C656,159 546,281 212,51 L584,7 Z" fill="#456e54" opacity="0.19" stroke="none"/>
<rect x="667" y="366" width="255" height="89" rx="11" fill="#eb0471" opacity="0.41"/>
<path d="M211,102 C951,314 705,108 1131,174 Q879,66 9,132 Q925,104 119,218 L939,62 Q527,18 1193,84 Q925,104 503,138 Q715,366 821,272 Z" fill="#9df239" opacity="0.50" stroke="none"/>
<rect x="660" y="243" width="96" height="103" rx="8" fill="#fcf032" opacity="0.65"/>
<path d="M1052,299 C32,63 962,25 932,147 L104,295 L348,395 L976,95 C836,51 1094,13 904,183 L188,235 Z" fill="#36561a" opacity="0.59" stroke="none"/>
<polygon points="610,121 132,35 950,189 840,55 522,193 1052,235" fill="#42eb95" opacity="0.93"/>
<rect x="623" y="194" width="259" height="62" rx="3" fill="#2cd925" opacity="0.87"/>
<rect x="247" y="234" width="267" height="46" rx="7" fill="#6e5d6d" opacity="0.52"/>
<polygon points="930,201 276,371 6,349 24,7 1130,129 860,27 958,181 608,287 498,137 84,355" fill="#686ab5" opacity="0.33"/>
<polygon points="1162,225 300,267 366,37 272,399 306,393 180,99 998,237 504,263 122,113 508,267" fill="#89088d" opacity="0.32"/>
<ellipse cx="751" cy="226" rx="21" ry="54" fill="#fef765" opacity="0.43"/>
<polygon points="455,90 849,380 107,94 645,304 1023,226 217,180 739,198 1069,376 519,154" fill="#819c06" opacity="0.76"/>
<ellipse cx="558" cy="213" rx="28" ry="40" fill="#8f3e2c" opacity="0.14"/>
<polygon points="758,397 1080,247 1146,145 332,219 30,133 960,15" fill="#135f89" opacity="0.20"/>
<path d="M771,214 L871,266 Q459,190 821,304 C505,132 691,214 29,264 C865,332 363,14 437,288 Z" fill="#121a19" opacity="0.44" stroke="none"/>
<path d="M20,35 Q312,391 138,97 L814,373 Q338,137 964,179 L504,151 C28,315 958,277 144,191 Q436,339 454,141 C1114,161 444,171 14,245 Z" fill="#8e3ac2" opacity="0.85" stroke="none"/>
<ellipse cx="409" cy="196" rx="79" ry="10" fill="#c8775f" opacity="0.13"/>
<polygon points="673,140 1051,366 245,80 671,322 89,292" fill="#6e73a8" opacity="0.39"/>
<polygon points="199,394 625,236 123,158 901,144 47,226 633,324 195,6" fill="#5f2856" opacity="0.72"/>
<path d="M874,33 Q414,117 832,303 Q532,227 214,173 Q42,49 604,11 L864,47 Z" fill="#9bc448" opacity="0.62" stroke="none"/>
<rect x="755" y="22" width="247" height="56" rx="11" fill="#3ebd29" opacity="0.85"/>
<ellipse cx="523" cy="78" rx="97" ry="55" fill="#e0c1f1" opacity="0.89"/>
<ellipse cx="516" cy="147" rx="90" ry="26" fill="#1e5142" opacity="0.11"/>
<ellipse cx="49" cy="364" rx="51" ry="40" fill="#829d37" opacity="0.29"/>
<path d="M354,361 C422,317 424,295 538,97 Q1198,133 640,335 C820,275 1190,253 904,119 Q812,395 1150,85 Z" fill="#d3b9e0" opacity="0.89" stroke="none"/>
<path d="M89,340 C525,264 711,26 481,380 Q901,160 639,370 C451,150 493,136 391,138 Z" fill="#4027df" opacity="0.34" stroke="none"/>
<path d="M1182,277 Q162,9 500,387 Q120,87 922,145 L222,21 L466,41 L1030,189 Q794,129 1068,171 Z" fill="#af932c" opacity="0.33" stroke="none"/>
<polygon points="674,233 980,67 486,13 248,247 762,353 348,251 638,149 656,335 98,185 36,51" fill="#634ea5" opacity="0.59"/>
<rect x="263" y="378" width="331" height="11" rx="3" fill="#90a67d" opacity="0.38"/>
<rect x="751" y="210" width="291" height="139" rx="3" fill="#63d5c5" opacity="0.48"/>
<polygon points="554,337 1100,347 1134,309 864,159 946,233 308,355 182,109 1176,231 298,337 700,11" fill="#24ee0d" opacity="0.90"/>
<rect x="559" y="274" width="179" height="51" rx="11" fill="#12ece5" opacity="0.37"/>
<polygon points="554,65 1148,235 574,117 560,63 1090,233 500,355" fill="#d6e92d" opacity="0.50"/>
<polygon points="218,305 1180,155 846,85 416,159 1074,313 964,211 54,29 152,279" fill="#669cbd" opacity="0.30"/>
<ellipse cx="1131" cy="302" rx="89" ry="41" fill="#f2add1" opacity="0.36"/>
<path d="M804,99 C1080,183 58,1 60,107 C448,367 130,233 660,131 C792,167 314,209 908,363 L144,111 Q452,195 470,77 Z" fill="#4e40a2" opacity="0.38" stroke="none"/>
<path d="M1153,220 C5,128 527,370 857,196 L333,40 C433,236 971,222 1109,224 Z" fill="#245e37" opacity="0.44" stroke="none"/>
<path d="M276,323 C840,343 874,337 316,283 Q672,31 18,105 L742,317 Z" fill="#828be2" opacity="0.61" stroke="none"/>
<rect x="913" y="188" width="21" height="109" rx="9" fill="#a40467" opacity="0.66"/>
<ellipse cx="729" cy="340" rx="13" ry="40" fill="#1cf0ef" opacity="0.51"/>
<polygon points="193,268 667,46 981,192 511,226 601,228 771,118 717,8 695,346 385,300" fill="#eaf978" opacity="0.61"/>
<circle cx="528" cy="399" r="55" fill="#7f7a0e" opacity="0.40"/>
<polygon points="509,152 167,378 993,268 683,174 1093,0 831,34 73,36 435,390 285,216" fill="#3da6a4" opacity="0.61"/>
<rect x="268" y="379" width="376" height="141" rx="8" fill="#39f9da" opacity="0.50"/>
<ellipse cx="532" cy="323" rx="94" ry="17" fill="#fc94c2" opacity="0.63"/>
<circle cx="81" cy="284" r="50" fill="#febeb7" opacity="0.49"/>
<rect x="95" y="2" width="163" height="22" rx="7" fill="#944ec5" opacity="0.14"/>
<polygon points="106,273 972,91 1118,325 1136,191 50,329 1188,19" fill="#64870d" opacity="0.57"/>
<rect x="215" y="26" width="43" height="10" rx="7" fill="#93329d" opacity="0.92"/>
<ellipse cx="959" cy="194" rx="85" ry="53" fill="#d7e5e5" opacity="0.26"/>
<ellipse cx="968" cy="295" rx="28" ry="17" fill="#5e3486" opacity="0.68"/>
<circle cx="117" cy="160" r="24" fill="#684b0b" opacity="0.28"/>
<polygon points="22,365 136,311 74,97 860,139 1086,213 672,95 82,41 228,355" fill="#58bf79" opacity="0.77"/>
<path d="M1143,106 C731,206 757,256 47,306 C3,166 157,24 583,298 Q75,174 389,32 Q121,340 579,390 L279,122 C123,142 1125,384 495,50 L1075,278 Z" fill="#9a0d4d" opacity="0.69" stroke="none"/>
<ellipse cx="538" cy="145" rx="68" ry="41" fill="#fafd38" opacity="0.75"/>
<path d="M543,274 L1011,294 Q279,122 945,156 C165,208 559,194 617,324 Q157,392 695,394 L1083,286 Q1119,162 9,116 L349,376 Z" fill="#0a0b45" opacity="0.28" stroke="none"/>
<ellipse cx="492" cy="123" rx="92" ry="40" fill="#49c39a" opacity="0.77"/>
<rect x="233" y="356" width="125" height="81" rx="1" fill="#5f91ef" opacity="0.83"/>
<ellipse cx="657" cy="60" rx="29" ry="9" fill="#122f77" opacity="0.28"/>
<path d="M210,297 C262,317 328,327 1050,273 C1038,149 48,239 82,201 Q838,237 328,295 L444,347 Z" fill="#06ad20" opacity="0.35" stroke="none"/>
<polygon points="34,233 484,51 262,141 648,183 1162,81 1180,11 1134,69 1056,271 898,185 596,99" fill="#bf40a5" opacity="0.36"/>
<ellipse cx="135" cy="42" rx="75" ry="10" fill="#bf587d" opacity="0.64"/>
<ellipse cx="160" cy="255" rx="50" ry="28" fill="#83827e" opacity="0.33"/>
<ellipse cx="509" cy="360" rx="37" ry="48" fill="#ca85e3" opacity="0.35"/>
<path d="M846,229 Q1058,153 756,387 Q248,247 26,65 Q990,69 432,399 L68,227 L328,231 C44,203 766,357 560,335 Z" fill="#0671bc" opacity="0.55" stroke="none"/>
<circle cx="531" cy="86" r="30" fill="#a30879" opacity="0.82"/>
<rect x="609" y="60" width="245" height="93" rx="1" fill="#e70ff7" opacity="0.85"/>
<ellipse cx="633" cy="100" rx="85" ry="22" fill="#d16e7f" opacity="0.77"/>
<circle cx="74" cy="17" r="47" fill="#0d1348" opacity="0.26"/>
<polygon points="111,34 1113,84 3,118 173,296 151,90 913,204 875,158" fill="#fe058e" opacity="0.92"/>
<circle cx="66" cy="377" r="45" fill="#5e4c40" opacity="0.58"/>
<circle cx="328" cy="295" r="23" fill="#0a60c6" opacity="0.73"/>
<circle cx="990" cy="325" r="59" fill="#66119c" opacity="0.81"/>
<ellipse cx="20" cy="339" rx="22" ry="49" fill="#1fd842" opacity="0.38"/>
<circle cx="33" cy="108" r="70" fill="#b3e037" opacity="0.72"/>
<path d="M1103,2 Q99,102 909,328 Q433,252 139,286 L959,354 L147,342 L1127,154 Q1051,158 981,176 Q1113,148 627,294 Z" fill="#b08445" opacity="0.52" stroke="none"/>
<circle cx="618" cy="17" r="69" fill="#6f6528" opacity="0.42"/>
<rect x="608" y="207" width="76" height="92" rx="0" fill="#dff06e" opacity="0.64"/>
<path d="M152,87 Q860,203 1006,37 C754,105 20,307 422,189 L570,17 C830,293 368,191 978,137 L390,189 Z" fill="#955dd6" opacity="0.74" stroke="none"/>
<path d="M593,76 C1157,32 255,306 313,4 C797,232 327,74 833,156 L789,256 C985,4 643,278 813,24 C1137,380 907,334 197,144 L393,116 Z" fill="#b61097" opacity="0.87" stroke="none"/>
<circle cx="600" cy="375" r="5" fill="#2beee6" opacity="0.81"/>
<rect x="46" y="325" width="90" height="64" rx="2" fill="#9106bc" opacity="0.91"/>
<rect x="1126" y="189" width="210" height="64" rx="2" fill="#273de4" opacity="0.95"/>
<path d="M798,181 L386,297 C518,365 104,215 378,113 Q910,37 1136,127 L1012,19 C728,359 906,145 60,203 Z" fill="#ec5a0c" opacity="0.17" stroke="none"/>
<path d="M1055,98 L739,358 Q679,122 753,316 Q853,112 415,226 Z" fill="#f0ff05" opacity="0.80" stroke="none"/>
<polygon points="413,376 343,170 689,60 363,110 1109,304 767,226 409,324 1011,182 685,40" fill="#adab24" opacity="0.85"/>
<polygon points="1035,222 69,304 415,354 217,20 147,294" fill="#245a5a" opacity="0.67"/>
<ellipse cx="186" cy="129" rx="64" ry="36" fill="#c20738" opacity="0.70"/>
<path d="M63,82 Q915,102 381,168 L705,300 Q1157,192 959,306 Q835,118 237,264 C577,332 1147,110 325,304 Z" fill="#fafd45" opacity="0.62" stroke="none"/>
<circle cx="692" cy="371" r="7" fill="#a687b2" opacity="0.60"/>
<rect x="778" y="1" width="102" height="100" rx="10" fill="#0caa28" opacity="0.51"/>
<path d="M690,377 Q790,365 1176,199 L252,107 Q576,159 578,329 Q230,237 488,87 Q124,171 718,37 Z" fill="#e34ed0" opacity="0.27" stroke="none"/>
</svg>
