<svg xmlns="http://www.w3.org/2000/svg" viewBox="0 0 320 220" width="320" height="220">
<defs>
<linearGradient id="gr0815" x1="0%" y1="0%" x2="18%" y2="69%"><stop offset="0%" stop-color="#653a70"/><stop offset="100%" stop-color="#cb8b0f"/></linearGradient>
<linearGradient id="gr1ca4" x1="0%" y1="0%" x2="61%" y2="28%"><stop offset="0%" stop-color="#d49fb3"/><stop offset="100%" stop-color="#576176"/></linearGradient>
<linearGradient id="gr2c97" x1="0%" y1="0%" x2="52%" y2="63%"><stop offset="0%" stop-color="#2f010a"/><stop offset="100%" stop-color="#35fce1"/></linearGradient>
<linearGradient id="gr3fde" x1="0%" y1="0%" x2="39%" y2="26%"><stop offset="0%" stop-color="#1595a5"/><stop offset="100%" stop-color="#444ac0"/></linearGradient>
</defs>
<rect width="320" height="220" fill="#37f8a9"/>
<rect x="109" y="192" width="19" height="40" rx="1" fill="#980cc3" opacity="0.23"/>
<circle cx="181" cy="56" r="60" fill="#ce04cb" opacity="0.82"/>
<polygon points="214,125 184,207 106,137 172,63 318,33 288,135 146,21 212,179" fill="#017b39" opacity="0.65"/>
<ellipse cx="135" cy="198" rx="89" ry="56" fill="#5b950d" opacity="0.29"/>
<ellipse cx="304" cy="23" rx="74" ry="55" fill="#62f74e" opacity="0.48"/>
<ellipse cx="157" cy="136" rx="57" ry="15" fill="#036bf3" opacity="0.51"/>
<path d="M158,29 C50,201 244,199 6,53 C90,173 92,59 302,93 L130,29 Q86,117 184,115 C236,115 190,73 160,203 L212,75 Q72,31 58,37 Z" fill="#86460c" opacity="0.31" stroke="none"/>
<circle cx="149" cy="28" r="60" fill="#87b32b" opacity="0.65"/>
<rect x="51" y="186" width="103" height="52" rx="11" fill="#da3e99" opacity="0.57"/>
<rect x="59" y="186" width="95" height="58" rx="3" fill="#dc7161" opacity="0.23"/>
<circle cx="67" cy="206" r="10" fill="#2cfd29" opacity="0.23"/>
<ellipse cx="177" cy="184" rx="19" ry="23" fill="#bcc327" opacity="0.15"/>
<ellipse cx="130" cy="141" rx="16" ry="11" fill="#03a190" opacity="0.53"/>
<path d="M55,122 C27,18 197,8 63,54 L99,26 C135,6 17,24 171,138 Z" fill="#3db9fd" opacity="0.16" stroke="none"/>
<rect x="290" y="205" width="60" height="64" rx="6" fill="#05a630" opacity="0.48"/>
<ellipse cx="266" cy="121" rx="46" ry="34" fill="#43cbd8" opacity="0.13"/>
<ellipse cx="31" cy="202" rx="89" ry="26" fill="#f83065" opacity="0.77"/>
<path d="M104,71 Q284,43 238,93 Q258,197 68,147 L248,59 C236,15 254,61 160,91 Z" fill="#fe1906" opacity="0.56" stroke="none"/>
<rect x="35" y="42" width="17" height="17" rx="7" fill="#a82889" opacity="0.25"/>
<ellipse cx="107" cy="34" rx="91" ry="59" fill="#d79951" opacity="0.79"/>
<polygon points="243,10 221,56 23,98 33,172 59,130 293,44 223,138 297,48 195,162" fill="#92aa22" opacity="0.71"/>
<polygon points="49,172 75,2 117,32 239,206 249,36 83,150 189,16 183,94 193,68" fill="#294768" opacity="0.82"/>
<polygon points="319,102 73,132 227,114 141,108 135,170 145,156 235,218 21,100 271,78" fill="#68887e" opacity="0.21"/>
<path d="M54,33 L10,129 L30,173 L50,117 Q70,165 104,11 C220,23 174,189 80,99 L196,171 C120,171 42,125 44,55 Z" fill="#54dee4" opacity="0.85" stroke="none"/>
<circle cx="255" cy="102" r="36" fill="#82d405" opacity="0.24"/>
<circle cx="141" cy="180" r="12" fill="#d3e023" opacity="0.38"/>
<path d="M299,10 L15,90 L307,110 C87,42 33,180 251,182 C159,126 233,144 195,78 C39,186 49,72 139,54 Q239,178 313,12 Z" fill="#88edd1" opacity="0.36" stroke="none"/>
<rect x="184" y="151" width="110" height="21" rx="8" fill="#80a496" opacity="0.15"/>
<polygon points="191,138 73,136 99,118 269,132 7,218 273,40 235,214 213,132 143,154" fill="#b496fe" opacity="0.22"/>
<polygon points="93,160 23,134 33,112 187,190 101,44 287,134 41,76" fill="#bcf964" opacity="0.86"/>
<rect x="232" y="159" width="110" height="40" rx="0" fill="#c35606" opacity="0.72"/>
<path d="M144,63 Q68,115 150,189 C298,161 44,43 62,217 C18,185 276,3 230,193 Q314,205 60,167 Q48,151 34,121 Z" fill="#3d766e" opacity="0.10" stroke="none"/>
<path d="M285,184 C161,208 251,26 37,84 Q233,200 195,86 L295,54 C11,10 245,204 239,2 L211,98 Z" fill="#b201b3" opacity="0.51" stroke="none"/>
<circle cx="170" cy="209" r="49" fill="#eafab8" opacity="0.60"/>
<ellipse cx="224" cy="119" rx="16" ry="59" fill="#4da57e" opacity="0.55"/>
<circle cx="141" cy="124" r="14" fill="#fd54e3" opacity="0.58"/>
<rect x="235" y="98" width="51" height="24" rx="3" fill="#41cc91" opacity="0.67"/>
<path d="M243,138 Q279,154 33,92 C37,16 95,70 169,188 L173,192 Z" fill="#edbe59" opacity="0.92" stroke="none"/>
<rect x="28" y="115" width="94" height="26" rx="4" fill="#0f3d1a" opacity="0.51"/>
<ellipse cx="132" cy="167" rx="88" ry="33" fill="#ba4002" opacity="0.72"/>
<circle cx="193" cy="8" r="36" fill="#6a8ef7" opacity="0.46"/>
<path d="M127,202 C35,14 141,156 199,30 L171,106 L79,198 C243,10 29,96 279,78 Z" fill="#1c4d05" opacity="0.82" stroke="none"/>
<polygon points="37,0 95,158 297,160 195,14 301,96" fill="#f4054c" opacity="0.80"/>
<ellipse cx="220" cy="127" rx="80" ry="43" fill="#94805a" opacity="0.23"/>
<circle cx="249" cy="160" r="70" fill="#2cc9af" opacity="0.28"/>
<polygon points="298,9 108,87 62,105 288,67 210,153 276,59 38,101 264,95" fill="#486bfd" opacity="0.50"/>
<rect x="171" y="198" width="89" height="36" rx="11" fill="#71a111" opacity="0.44"/>
<path d="M51,146 Q87,70 225,148 C293,204 159,34 105,24 L173,112 Q113,132 203,194 C239,86 57,88 147,22 Z" fill="#9822d9" opacity="0.54" stroke="none"/>
<circle cx="170" cy="57" r="55" fill="#62be78" opacity="0.40"/>
<ellipse cx="224" cy="19" rx="94" ry="44" fill="#c39b3e" opacity="0.12"/>
<path d="M77,112 L273,28 L277,88 Q281,168 179,126 C87,190 161,16 315,162 L223,18 Z" fill="#0109a3" opacity="0.42" stroke="none"/>
<polygon points="301,40 39,214 113,40 203,78 309,176" fill="#6f48f4" opacity="0.93"/>
<polygon points="147,210 317,144 183,126 65,84 27,134 261,176 255,122" fill="#0901c2" opacity="0.69"/>
<circle cx="294" cy="57" r="55" fill="#0e5f94" opacity="0.78"/>
<polygon points="107,214 149,68 271,114 153,28 179,30 285,180 87,170" fill="#9c607a" opacity="0.66"/>
<polygon points="293,24 223,102 169,104 67,102 301,96" fill="#99c50c" opacity="0.85"/>
<ellipse cx="156" cy="203" rx="60" ry="31" fill="#3fca1a" opacity="0.27"/>
<circle cx="313" cy="0" r="54" fill="#4ea26f" opacity="0.17"/>
<rect x="311" y="6" width="53" height="14" rx="11" fill="#298ebd" opacity="0.76"/>
<rect x="255" y="66" width="71" height="42" rx="7" fill="#59c605" opacity="0.93"/>
<circle cx="263" cy="110" r="22" fill="#18e64d" opacity="0.18"/>
<rect x="213" y="96" width="115" height="12" rx="5" fill="#a9662b" opacity="0.34"/>
<circle cx="93" cy="52" r="18" fill="#b28b33" opacity="0.15"/>
<circle cx="59" cy="126" r="54" fill="#102c61" opacity="0.13"/>
<rect x="169" y="60" width="75" height="63" rx="9" fill="#fe929f" opacity="0.38"/>
<polygon points="284,67 238,157 208,79 130,205 4,15 22,185 56,131 170,93 172,103 190,25" fill="#c14627" opacity="0.35"/>
<circle cx="137" cy="12" r="52" fill="#bc86bf" opacity="0.83"/>
<path d="M263,114 L235,202 Q143,106 281,192 L285,144 C161,128 315,82 37,160 Q105,152 131,170 L39,138 L139,218 Z" fill="#59ac8d" opacity="0.76" stroke="none"/>
<path d="M66,145 C86,173 184,27 170,29 C318,193 32,115 82,165 Q230,133 264,87 Q124,27 78,17 C226,149 228,55 54,65 Q202,185 204,87 Q128,11 306,25 Z" fill="#12a9d0" opacity="0.60" stroke="none"/>
<rect x="109" y="32" width="41" height="65" rx="9" fill="#23d0c3" opacity="0.33"/>
<circle cx="117" cy="44" r="42" fill="#d248cb" opacity="0.37"/>
<rect x="147" y="74" width="59" height="73" rx="7" fill="#7e9f39" opacity="0.74"/>
<polygon points="126,57 160,35 210,145 148,219 38,93 200,11 314,73 60,183 206,197 240,51" fill="#ace601" opacity="0.11"/>
<rect x="51" y="162" width="13" height="61" rx="11" fill="#ed5059" opacity="0.47"/>
<circle cx="315" cy="70" r="70" fill="#11bb21" opacity="0.63"/>
<path d="M297,196 L237,100 Q113,208 267,158 C111,34 121,136 147,210 Z" fill="#463b5f" opacity="0.65" stroke="none"/>
<ellipse cx="42" cy="89" rx="96" ry="21" fill="#7805f8" opacity="0.12"/>
<ellipse cx="319" cy="110" rx="97" ry="31" fill="#3b3f05" opacity="0.85"/>
</svg>
