<svg xmlns="http://www.w3.org/2000/svg" viewBox="0 0 320 220" width="320" height="220">
<defs>
<linearGradient id="gr09d4" x1="0%" y1="0%" x2="13%" y2="48%"><stop offset="0%" stop-color="#4b6b23"/><stop offset="100%" stop-color="#5e5626"/></linearGradient>
<linearGradient id="gr1707" x1="0%" y1="0%" x2="48%" y2="23%"><stop offset="0%" stop-color="#1a68ba"/><stop offset="100%" stop-color="#aa60d1"/></linearGradient>
<linearGradient id="gr2a8e" x1="0%" y1="0%" x2="31%" y2="54%"><stop offset="0%" stop-color="#9fc095"/><stop offset="100%" stop-color="#d418f0"/></linearGradient>
<linearGradient id="gr3a99" x1="0%" y1="0%" x2="90%" y2="85%"><stop offset="0%" stop-color="#0c0324"/><stop offset="100%" stop-color="#cf7433"/></linearGradient>
</defs>
<rect width="320" height="220" fill="#a09698"/>
<ellipse cx="140" cy="159" rx="40" ry="25" fill="#b2338a" opacity="0.77"/>
<path d="M169,116 Q109,52 39,126 L203,10 Q47,210 121,140 C125,36 311,198 129,84 Q261,12 63,142 C163,122 141,4 135,50 Q299,18 213,180 Z" fill="#7cab9f" opacity="0.42" stroke="none"/>
<polygon points="179,110 93,128 279,42 289,216 251,134 165,68 95,22" fill="#2e2ae2" opacity="0.54"/>
<circle cx="70" cy="45" r="71" fill="#200db4" opacity="0.12"/>
<rect x="92" y="127" width="10" height="75" rx="4" fill="#8e759a" opacity="0.62"/>
<rect x="68" y="199" width="72" height="21" rx="0" fill="#a08882" opacity="0.42"/>
<ellipse cx="300" cy="183" rx="20" ry="38" fill="#1cf86a" opacity="0.68"/>
<circle cx="73" cy="76" r="34" fill="#8337ff" opacity="0.44"/>
<circle cx="263" cy="106" r="34" fill="#4843cd" opacity="0.80"/>
<ellipse cx="21" cy="84" rx="27" ry="53" fill="#b2f7ab" opacity="0.18"/>
<path d="M54,205 L266,193 L222,153 Q114,193 244,43 C168,215 26,97 92,55 L16,79 C260,71 278,81 184,43 C236,119 62,93 96,31 Z" fill="#b49da4" opacity="0.19" stroke="none"/>
<circle cx="291" cy="182" r="70" fill="#2106c9" opacity="0.15"/>
<circle cx="273" cy="192" r="66" fill="#1df7c7" opacity="0.67"/>
<ellipse cx="207" cy="210" rx="41" ry="32" fill="#6e2b55" opacity="0.52"/>
<polygon points="23,78 289,12 187,146 101,48 159,146 169,44 67,22 237,204 103,2" fill="#ce09b6" opacity="0.12"/>
<ellipse cx="174" cy="173" rx="24" ry="5" fill="#522e5c" opacity="0.81"/>
<ellipse cx="275" cy="158" rx="59" ry="47" fill="#815279" opacity="0.23"/>
<path d="M172,211 C32,55 210,201 148,27 C72,11 314,69 252,39 C176,15 98,217 100,67 Q24,215 202,89 Q30,25 128,111 Q308,15 6,33 Q282,153 284,75 Z" fill="#035eea" opacity="0.28" stroke="none"/>
<rect x="47" y="66" width="105" height="74" rx="7" fill="#03f8b5" opacity="0.49"/>
<path d="M55,34 Q283,34 133,168 C9,180 227,46 77,8 L273,208 C277,128 15,138 25,32 L221,192 Q225,52 123,174 Z" fill="#396efd" opacity="0.17" stroke="none"/>
<rect x="178" y="133" width="26" height="42" rx="10" fill="#9b7780" opacity="0.25"/>
<polygon points="113,8 139,170 53,176 47,58 185,204 19,18 253,8 311,50 1,88" fill="#63c728" opacity="0.79"/>
<ellipse cx="32" cy="31" rx="74" ry="23" fill="#ebca3e" opacity="0.68"/>
<path d="M269,20 L17,116 L213,108 Q153,200 51,170 L23,146 Q59,158 229,20 L105,92 Z" fill="#9a94a3" opacity="0.68" stroke="none"/>
<polygon points="103,186 241,76 203,182 117,120 175,30 57,72 211,6" fill="#fc9146" opacity="0.68"/>
<ellipse cx="106" cy="125" rx="18" ry="11" fill="#d7a6b8" opacity="0.20"/>
<circle cx="63" cy="70" r="58" fill="#ea6ac5" opacity="0.16"/>
<circle cx="269" cy="184" r="20" fill="#a750e3" opacity="0.36"/>
<rect x="299" y="134" width="31" height="32" rx="11" fill="#30e891" opacity="0.54"/>
<path d="M115,90 L215,170 C315,70 229,164 95,90 Q3,118 173,112 L177,216 C245,4 239,86 185,184 Z" fill="#c05a59" opacity="0.75" stroke="none"/>
<ellipse cx="120" cy="43" rx="74" ry="18" fill="#5e2e56" opacity="0.60"/>
<path d="M197,156 Q265,72 163,178 L71,186 Q107,158 21,16 C281,64 307,106 285,96 Q289,216 123,190 Z" fill="#2aaa1b" opacity="0.35" stroke="none"/>
<circle cx="50" cy="77" r="71" fill="#081340" opacity="0.53"/>
<polygon points="295,70 113,156 203,182 53,168 303,66 313,12 83,46 189,76 311,182" fill="#112fc6" opacity="0.81"/>
<circle cx="62" cy="181" r="39" fill="#c2f3ec" opacity="0.15"/>
<circle cx="212" cy="103" r="15" fill="#118412" opacity="0.70"/>
<ellipse cx="250" cy="73" rx="30" ry="49" fill="#32cb88" opacity="0.40"/>
<circle cx="15" cy="30" r="56" fill="#9fc0d5" opacity="0.53"/>
<polygon points="88,79 266,213 140,23 30,65 64,175 242,89" fill="#4e2273" opacity="0.43"/>
<circle cx="45" cy="164" r="62" fill="#fd3f83" opacity="0.90"/>
<ellipse cx="267" cy="82" rx="79" ry="30" fill="#f29a31" opacity="0.55"/>
<ellipse cx="132" cy="191" rx="18" ry="53" fill="#9ce282" opacity="0.72"/>
<ellipse cx="257" cy="96" rx="43" ry="6" fill="#8f2b77" opacity="0.44"/>
<polygon points="9,128 99,118 13,24 263,206 209,164 43,10 85,204 79,82 89,104" fill="#921920" opacity="0.74"/>
<rect x="280" y="175" width="28" height="78" rx="0" fill="#252476" opacity="0.56"/>
<circle cx="256" cy="31" r="33" fill="#c912de" opacity="0.66"/>
<polygon points="237,140 231,46 49,148 11,86 309,96" fill="#f834f4" opacity="0.38"/>
<polygon points="211,194 317,104 247,182 129,0 91,162 197,48 127,38" fill="#c50dc2" opacity="0.14"/>
<polygon points="77,204 135,118 209,128 235,182 213,184" fill="#2d4b94" opacity="0.88"/>
<circle cx="164" cy="47" r="9" fill="#2ddb62" opacity="0.69"/>
<rect x="10" y="45" width="72" height="41" rx="10" fill="#c20458" opacity="0.42"/>
<rect x="178" y="33" width="114" height="58" rx="6" fill="#f3ef00" opacity="0.54"/>
<rect x="218" y="173" width="106" height="12" rx="10" fill="#4b2ea8" opacity="0.39"/>
<polygon points="121,116 211,74 317,188 119,126 65,124 219,206 133,164 127,22 201,60" fill="#726350" opacity="0.36"/>
<rect x="8" y="119" width="46" height="17" rx="4" fill="#cf8d26" opacity="0.23"/>
<rect x="48" y="99" width="72" height="56" rx="8" fill="#f0918e" opacity="0.65"/>
<rect x="88" y="171" width="112" height="74" rx="0" fill="#da22f6" opacity="0.42"/>
<rect x="0" y="207" width="28" height="64" rx="0" fill="#9de15e" opacity="0.58"/>
<ellipse cx="40" cy="179" rx="92" ry="50" fill="#816cc6" opacity="0.23"/>
<rect x="53" y="80" width="29" height="18" rx="1" fill="#21bc4b" opacity="0.88"/>
<polygon points="56,215 170,45 300,59 254,1 160,83 82,109" fill="#55a553" opacity="0.15"/>
<ellipse cx="269" cy="164" rx="83" ry="10" fill="#b0fa63" opacity="0.46"/>
<rect x="14" y="121" width="36" height="24" rx="6" fill="#5ee83c" opacity="0.75"/>
<polygon points="29,56 23,42 225,188 251,162 293,216" fill="#314f64" opacity="0.61"/>
<polygon points="259,134 301,192 231,22 305,44 267,46" fill="#e9e6b2" opacity="0.73"/>
<rect x="2" y="85" width="104" height="64" rx="2" fill="#0dd5d0" opacity="0.57"/>
<polygon points="257,128 283,62 197,4 319,142 9,84 163,198 205,156" fill="#f1ef78" opacity="0.93"/>
<rect x="316" y="71" width="114" height="24" rx="8" fill="#26963a" opacity="0.49"/>
<circle cx="292" cy="159" r="7" fill="#dcbd22" opacity="0.41"/>
<path d="M74,49 C158,117 64,63 50,153 C134,169 40,67 154,165 C174,121 208,91 194,125 L150,85 Q106,101 108,75 C96,211 274,53 84,195 Z" fill="#58a818" opacity="0.61" stroke="none"/>
<polygon points="314,113 316,91 78,13 48,115 98,101 36,15" fill="#49550d" opacity="0.77"/>
<rect x="279" y="86" width="83" height="45" rx="11" fill="#e3809d" opacity="0.48"/>
<circle cx="31" cy="70" r="56" fill="#31f3e5" opacity="0.93"/>
<circle cx="237" cy="148" r="20" fill="#62a903" opacity="0.23"/>
<circle cx="203" cy="186" r="28" fill="#c2d7b1" opacity="0.62"/>
<polygon points="196,167 214,173 312,43 170,217 172,111 190,157" fill="#387f6f" opacity="0.64"/>
<ellipse cx="137" cy="8" rx="29" ry="54" fill="#aacb7f" opacity="0.87"/>
<path d="M58,29 C142,201 176,191 34,93 L54,177 L138,13 Q286,201 192,191 C244,11 134,185 168,3 Z" fill="#dbc448" opacity="0.54" stroke="none"/>
<rect x="139" y="126" width="83" height="13" rx="7" fill="#20c1f1" opacity="0.30"/>
<rect x="19" y="174" width="19" height="54" rx="11" fill="#0b5fb9" opacity="0.67"/>
<rect x="283" y="190" width="59" height="36" rx="11" fill="#51b681" opacity="0.38"/>
<path d="M163,54 Q199,66 17,12 C21,32 207,30 217,8 C285,80 279,122 97,52 C37,84 31,74 233,12 Z" fill="#6ae649" opacity="0.57" stroke="none"/>
<rect x="296" y="167" width="50" height="46" rx="4" fill="#d2d906" opacity="0.85"/>
<rect x="16" y="167" width="48" height="39" rx="8" fill="#3d596e" opacity="0.55"/>
<ellipse cx="248" cy="167" rx="42" ry="27" fill="#9fe6d6" opacity="0.81"/>
<polygon points="224,7 274,5 276,39 102,205 136,79 58,29" fill="#88f49b" opacity="0.80"/>
</svg>
