<svg xmlns="http://www.w3.org/2000/svg" viewBox="0 0 320 220" width="320" height="220">
<defs>
<linearGradient id="gr0208" x1="0%" y1="0%" x2="37%" y2="84%"><stop offset="0%" stop-color="#2cddc7"/><stop offset="100%" stop-color="#82807a"/></linearGradient>
<linearGradient id="gr11eb" x1="0%" y1="0%" x2="0%" y2="27%"><stop offset="0%" stop-color="#7c2e4e"/><stop offset="100%" stop-color="#ce6155"/></linearGradient>
<linearGradient id="gr2f62" x1="0%" y1="0%" x2="87%" y2="42%"><stop offset="0%" stop-color="#df2759"/><stop offset="100%" stop-color="#2268e4"/></linearGradient>
<linearGradient id="gr3b9d" x1="0%" y1="0%" x2="10%" y2="97%"><stop offset="0%" stop-color="#e07858"/><stop offset="100%" stop-color="#601fd7"/></linearGradient>
</defs>
<rect width="320" height="220" fill="#4ce50c"/>
<circle cx="256" cy="179" r="23" fill="#03ae1e" opacity="0.17"/>
<circle cx="134" cy="105" r="71" fill="#2ee634" opacity="0.41"/>
<polygon points="139,138 117,12 111,130 249,60 147,214 61,132 119,102 193,68 219,34" fill="#35ea1a" opacity="0.65"/>
<ellipse cx="274" cy="121" rx="28" ry="55" fill="#461fa0" opacity="0.66"/>
<ellipse cx="263" cy="114" rx="45" ry="29" fill="#9e864d" opacity="0.20"/>
<polygon points="143,130 25,76 115,102 221,128 151,38" fill="#49658e" opacity="0.93"/>
<ellipse cx="94" cy="193" rx="78" ry="42" fill="#3bfa4c" opacity="0.37"/>
<path d="M3,106 Q103,66 177,80 Q53,116 175,182 C83,18 61,144 311,174 Q283,110 133,160 Q265,108 99,190 Z" fill="#43b829" opacity="0.83" stroke="none"/>
<circle cx="122" cy="177" r="65" fill="#2b0488" opacity="0.60"/>
<ellipse cx="48" cy="95" rx="68" ry="40" fill="#79dcce" opacity="0.13"/>
<ellipse cx="29" cy="56" rx="53" ry="27" fill="#597773" opacity="0.48"/>
<path d="M286,193 L114,109 Q198,141 296,171 C92,99 238,149 208,39 C68,215 22,53 56,207 Z" fill="#8c4f8c" opacity="0.52" stroke="none"/>
<polygon points="126,9 32,19 146,101 148,191 294,73 264,127" fill="#1b8bc1" opacity="0.84"/>
<circle cx="43" cy="186" r="6" fill="#c63451" opacity="0.91"/>
<path d="M217,20 L285,168 Q97,212 187,62 Q95,174 169,48 C237,100 103,78 113,104 L53,88 Q249,112 211,102 L183,50 Z" fill="#baaf0f" opacity="0.28" stroke="none"/>
<rect x="62" y="97" width="52" height="71" rx="6" fill="#97276c" opacity="0.51"/>
<polygon points="269,48 263,10 81,36 107,110 213,160 207,54 153,172 179,58 221,60" fill="#217494" opacity="0.64"/>
<polygon points="59,178 37,140 95,30 41,92 195,42" fill="#1c884a" opacity="0.35"/>
<polygon points="305,52 203,118 309,152 239,90 313,88" fill="#09e7a8" opacity="0.94"/>
<rect x="248" y="39" width="102" height="60" rx="0" fill="#d87c56" opacity="0.43"/>
<rect x="224" y="171" width="88" height="10" rx="4" fill="#c766be" opacity="0.93"/>
<path d="M200,123 C188,71 206,13 48,135 C228,31 182,5 216,207 Q268,203 94,129 C178,109 116,179 262,105 Z" fill="#3b9e26" opacity="0.77" stroke="none"/>
<circle cx="177" cy="196" r="10" fill="#d16727" opacity="0.91"/>
<rect x="111" y="150" width="49" height="68" rx="7" fill="#3d67b5" opacity="0.43"/>
<polygon points="234,133 236,99 254,45 32,147 274,85 212,187 294,77 200,179 186,25 60,191" fill="#a0bdfd" opacity="0.85"/>
<rect x="79" y="86" width="85" height="78" rx="3" fill="#03f6d5" opacity="0.19"/>
<circle cx="23" cy="22" r="32" fill="#59311d" opacity="0.41"/>
<ellipse cx="293" cy="8" rx="99" ry="19" fill="#7e967b" opacity="0.34"/>
<circle cx="198" cy="9" r="45" fill="#a415b4" opacity="0.29"/>
<path d="M284,191 L80,7 C260,55 22,53 312,51 Q108,23 62,25 L82,5 Z" fill="#c83d9a" opacity="0.42" stroke="none"/>
<polygon points="200,31 250,9 188,27 206,165 304,31 98,173 100,83 182,129" fill="#328ba3" opacity="0.78"/>
<polygon points="140,51 30,77 64,91 50,57 244,179 70,45" fill="#083197" opacity="0.88"/>
<circle cx="241" cy="4" r="30" fill="#ffa7a7" opacity="0.52"/>
<rect x="239" y="114" width="23" height="40" rx="11" fill="#270435" opacity="0.88"/>
<rect x="311" y="174" width="73" height="25" rx="7" fill="#3dea7d" opacity="0.12"/>
<rect x="319" y="194" width="11" height="42" rx="3" fill="#b999c5" opacity="0.60"/>
<circle cx="7" cy="102" r="60" fill="#33320d" opacity="0.18"/>
<circle cx="21" cy="120" r="44" fill="#63a3eb" opacity="0.84"/>
<polygon points="310,217 88,199 10,101 12,215 158,189 64,3" fill="#a6b959" opacity="0.25"/>
<polygon points="134,189 232,163 26,33 92,119 302,25 16,15 2,153 68,175" fill="#8327e9" opacity="0.61"/>
<polygon points="170,37 108,75 190,37 224,11 274,217 20,83 102,165 8,43 186,121 316,187" fill="#17e0bd" opacity="0.60"/>
<ellipse cx="143" cy="62" rx="97" ry="40" fill="#692195" opacity="0.75"/>
<rect x="152" y="83" width="70" height="51" rx="8" fill="#8370f6" opacity="0.77"/>
<path d="M128,219 C308,75 262,121 40,31 L156,111 C80,103 258,33 260,175 C184,123 106,181 300,19 Z" fill="#70ef5e" opacity="0.92" stroke="none"/>
<rect x="191" y="78" width="55" height="19" rx="11" fill="#655645" opacity="0.24"/>
<polygon points="186,161 316,11 206,77 48,199 226,29 100,91 310,53 280,23 138,181 268,75" fill="#d67e8d" opacity="0.73"/>
<rect x="287" y="34" width="93" height="15" rx="3" fill="#e0ad65" opacity="0.23"/>
<path d="M295,146 C11,62 245,172 239,126 C19,62 125,152 311,86 C283,138 133,108 63,190 Z" fill="#dcb9ad" opacity="0.53" stroke="none"/>
<path d="M294,65 L250,145 Q270,213 304,183 L164,115 C152,139 10,189 204,19 L64,175 L116,39 Z" fill="#ea8154" opacity="0.57" stroke="none"/>
<rect x="167" y="54" width="77" height="43" rx="11" fill="#eadfed" opacity="0.15"/>
<ellipse cx="111" cy="134" rx="91" ry="12" fill="#f53d35" opacity="0.58"/>
<circle cx="184" cy="175" r="25" fill="#fbf716" opacity="0.89"/>
<ellipse cx="126" cy="89" rx="78" ry="52" fill="#95d16c" opacity="0.50"/>
<polygon points="166,81 264,91 250,33 124,131 270,153 240,51 226,153 228,39" fill="#aab7c9" opacity="0.13"/>
<ellipse cx="87" cy="46" rx="19" ry="21" fill="#52769d" opacity="0.30"/>
<circle cx="128" cy="147" r="61" fill="#da851e" opacity="0.19"/>
<path d="M262,5 Q90,105 220,63 C16,103 194,45 260,15 L120,119 Z" fill="#664534" opacity="0.46" stroke="none"/>
<polygon points="190,41 288,95 274,37 276,115 166,17 8,67 250,13 124,215" fill="#de9241" opacity="0.23"/>
<ellipse cx="79" cy="46" rx="91" ry="23" fill="#54da95" opacity="0.73"/>
<polygon points="215,186 289,32 59,90 101,196 223,10 41,144 67,58" fill="#2c6df6" opacity="0.77"/>
<polygon points="241,112 139,2 117,116 303,142 249,60 83,114 253,148" fill="#5c62e8" opacity="0.90"/>
<ellipse cx="300" cy="15" rx="28" ry="39" fill="#ba072a" opacity="0.85"/>
<rect x="137" y="48" width="93" height="37" rx="1" fill="#fcc9bf" opacity="0.66"/>
<path d="M17,72 Q85,24 271,26 L307,90 Q87,130 225,152 Q37,156 31,30 Z" fill="#a66147" opacity="0.41" stroke="none"/>
<rect x="134" y="73" width="74" height="24" rx="10" fill="#f0ffb4" opacity="0.64"/>
<circle cx="110" cy="213" r="39" fill="#3e55dc" opacity="0.15"/>
<path d="M68,111 Q56,191 42,177 Q190,9 288,175 Q20,115 166,101 Z" fill="#4faa82" opacity="0.44" stroke="none"/>
<ellipse cx="273" cy="200" rx="57" ry="40" fill="#978187" opacity="0.17"/>
</svg>
