<svg xmlns="http://www.w3.org/2000/svg" viewBox="0 0 320 220" width="320" height="220">
<defs>
<linearGradient id="gr0bfb" x1="0%" y1="0%" x2="56%" y2="99%"><stop offset="0%" stop-color="#f4811e"/><stop offset="100%" stop-color="#3975e5"/></linearGradient>
<linearGradient id="gr1732" x1="0%" y1="0%" x2="35%" y2="26%"><stop offset="0%" stop-color="#23bce9"/><stop offset="100%" stop-color="#456134"/></linearGradient>
<linearGradient id="gr222d" x1="0%" y1="0%" x2="26%" y2="17%"><stop offset="0%" stop-color="#8f4da8"/><stop offset="100%" stop-color="#0ed4e7"/></linearGradient>
<linearGradient id="gr375c" x1="0%" y1="0%" x2="81%" y2="68%"><stop offset="0%" stop-color="#ab5b0b"/><stop offset="100%" stop-color="#7bf4ee"/></linearGradient>
</defs>
<rect width="320" height="220" fill="#61d16f"/>
<path d="M83,30 L311,102 Q91,46 261,52 C265,44 163,22 269,96 C145,40 107,186 149,104 Q89,136 243,110 C23,130 97,212 123,42 Z" fill="#6f4f79" opacity="0.11" stroke="none"/>
<rect x="50" y="213" width="70" height="72" rx="10" fill="#a2f740" opacity="0.79"/>
<path d="M26,117 L238,77 C258,65 196,47 22,209 C170,17 108,87 318,77 Q82,53 20,115 C8,151 186,57 188,215 Q240,123 34,61 Z" fill="#1b3ee8" opacity="0.60" stroke="none"/>
<path d="M285,152 Q289,68 315,214 C287,102 297,200 131,26 Q103,98 241,12 Q309,20 239,126 C147,110 125,44 311,194 Q219,186 5,76 L265,136 Z" fill="#01f673" opacity="0.21" stroke="none"/>
<circle cx="200" cy="31" r="45" fill="#48f2a6" opacity="0.71"/>
<path d="M270,145 L98,157 L54,161 L74,177 L30,133 C242,37 52,59 6,153 Q218,25 28,119 Z" fill="#f23c7c" opacity="0.50" stroke="none"/>
<rect x="175" y="14" width="25" height="64" rx="7" fill="#e84235" opacity="0.67"/>
<rect x="119" y="54" width="27" height="77" rx="3" fill="#26e87d" opacity="0.47"/>
<circle cx="255" cy="158" r="68" fill="#c257c5" opacity="0.28"/>
<polygon points="8,155 250,189 188,211 206,9 240,139 98,105" fill="#2395e3" opacity="0.30"/>
<ellipse cx="29" cy="180" rx="31" ry="33" fill="#dd4ef3" opacity="0.16"/>
<circle cx="286" cy="161" r="73" fill="#afd50c" opacity="0.65"/>
<rect x="116" y="215" width="28" height="34" rx="0" fill="#397432" opacity="0.11"/>
<rect x="28" y="191" width="44" height="80" rx="4" fill="#035a1a" opacity="0.83"/>
<rect x="196" y="91" width="16" height="28" rx="4" fill="#31fd02" opacity="0.93"/>
<rect x="300" y="71" width="84" height="80" rx="0" fill="#5cfcea" opacity="0.26"/>
<circle cx="84" cy="35" r="17" fill="#0ff9d2" opacity="0.29"/>
<path d="M122,169 Q206,125 176,19 C100,111 54,21 216,191 Q268,159 222,61 C306,37 116,103 70,29 C154,21 220,39 174,105 Z" fill="#d36348" opacity="0.71" stroke="none"/>
<circle cx="249" cy="88" r="26" fill="#2a3aaf" opacity="0.17"/>
<path d="M311,198 Q283,78 261,16 Q9,60 99,82 C199,50 209,72 107,122 L207,2 Z" fill="#c914fd" opacity="0.48" stroke="none"/>
<path d="M310,45 C202,189 268,87 286,197 Q242,113 308,91 Q104,99 90,217 C238,161 272,31 258,133 C150,29 120,55 298,37 Q62,109 32,51 Z" fill="#037364" opacity="0.79" stroke="none"/>
<rect x="99" y="194" width="103" height="21" rx="11" fill="#e01389" opacity="0.46"/>
<rect x="43" y="134" width="41" height="19" rx="11" fill="#0ce451" opacity="0.86"/>
<circle cx="243" cy="26" r="18" fill="#dbce19" opacity="0.51"/>
<path d="M33,124 Q37,84 287,102 Q131,122 173,128 C177,204 267,2 53,176 L185,92 L125,200 Q1,216 27,138 Z" fill="#8c2097" opacity="0.40" stroke="none"/>
<path d="M146,121 Q38,177 8,159 Q316,187 206,213 Q98,57 292,71 C152,131 74,49 140,3 Q0,151 306,89 C70,157 40,91 154,89 Z" fill="#170b60" opacity="0.34" stroke="none"/>
<path d="M309,168 Q57,156 19,26 Q55,130 257,64 L197,148 Z" fill="#b77d0b" opacity="0.39" stroke="none"/>
<path d="M212,131 C200,27 122,21 124,187 C112,123 34,89 36,43 Q24,83 266,125 C94,173 64,67 242,177 C262,125 104,107 282,193 L174,57 Z" fill="#4566d2" opacity="0.24" stroke="none"/>
<circle cx="57" cy="16" r="24" fill="#23dbaf" opacity="0.91"/>
<circle cx="55" cy="66" r="48" fill="#686dfd" opacity="0.47"/>
<polygon points="32,151 210,97 212,67 166,205 200,71 58,185" fill="#d4545b" opacity="0.37"/>
<circle cx="85" cy="24" r="10" fill="#278b6b" opacity="0.78"/>
<rect x="243" y="146" width="111" height="15" rx="7" fill="#cc04d9" opacity="0.10"/>
<path d="M123,22 C223,14 233,144 67,218 L231,126 C267,46 245,120 303,210 L147,218 L247,22 C155,150 197,140 127,2 C163,70 13,108 135,10 Z" fill="#46ffa1" opacity="0.34" stroke="none"/>
<ellipse cx="78" cy="189" rx="76" ry="22" fill="#11667c" opacity="0.40"/>
<rect x="115" y="18" width="59" height="70" rx="7" fill="#b89719" opacity="0.27"/>
<path d="M187,138 L31,66 L67,150 C167,218 305,32 267,158 L303,98 Z" fill="#05d9e1" opacity="0.21" stroke="none"/>
<circle cx="278" cy="157" r="65" fill="#898444" opacity="0.44"/>
<path d="M44,171 L160,195 C276,195 38,177 136,151 C188,67 270,41 304,83 C100,55 118,161 24,171 L204,151 Q128,187 114,101 C262,85 296,175 218,193 Z" fill="#9dc3aa" opacity="0.47" stroke="none"/>
<path d="M309,140 L313,88 L189,12 Q1,152 91,46 Q63,126 73,12 C269,100 135,166 209,40 Q213,44 143,130 Z" fill="#c38e0b" opacity="0.35" stroke="none"/>
<path d="M310,29 C202,145 140,211 286,69 C242,161 244,23 198,101 L218,77 L46,205 Z" fill="#f13024" opacity="0.27" stroke="none"/>
<ellipse cx="313" cy="164" rx="27" ry="30" fill="#617caf" opacity="0.77"/>
<path d="M42,133 C254,53 160,111 274,41 L294,173 L314,53 Q78,113 48,183 C292,15 246,185 280,215 Q12,83 222,65 Z" fill="#a5dc38" opacity="0.49" stroke="none"/>
<ellipse cx="41" cy="72" rx="71" ry="49" fill="#5c1cdf" opacity="0.80"/>
<path d="M218,205 L238,141 Q2,113 260,39 Q56,75 234,197 Z" fill="#bc3f28" opacity="0.70" stroke="none"/>
<path d="M69,192 L201,180 Q13,164 263,106 L107,66 L79,54 L307,74 Q87,118 33,0 L229,4 Z" fill="#37999b" opacity="0.93" stroke="none"/>
<path d="M308,103 Q232,155 154,161 L302,45 C258,1 132,127 22,153 Q42,193 236,115 Q32,167 210,77 C230,189 264,167 122,41 Q270,173 48,71 Z" fill="#a39ff2" opacity="0.34" stroke="none"/>
<circle cx="51" cy="42" r="58" fill="#ad3259" opacity="0.82"/>
<circle cx="161" cy="84" r="58" fill="#0412d7" opacity="0.35"/>
<polygon points="306,77 52,107 134,89 232,19 218,61 156,143 110,181 272,3" fill="#b559e5" opacity="0.82"/>
<ellipse cx="211" cy="114" rx="89" ry="32" fill="#f07379" opacity="0.83"/>
<ellipse cx="300" cy="83" rx="80" ry="26" fill="#6c63ea" opacity="0.84"/>
<rect x="9" y="44" width="107" height="52" rx="9" fill="#4c217f" opacity="0.54"/>
<rect x="17" y="156" width="103" height="20" rx="5" fill="#a0b107" opacity="0.47"/>
<rect x="25" y="12" width="71" height="43" rx="1" fill="#4f318f" opacity="0.84"/>
<polygon points="140,215 30,157 0,219 306,177 244,59 6,93 168,163 218,81" fill="#95c317" opacity="0.24"/>
<rect x="309" y="32" width="109" height="78" rx="9" fill="#18434b" opacity="0.48"/>
<path d="M125,16 Q65,168 155,178 C63,138 9,72 99,34 L199,74 Q299,218 149,112 C217,72 243,6 285,100 C161,160 123,42 229,200 C169,8 259,38 237,104 Z" fill="#1d0c53" opacity="0.92" stroke="none"/>
<polygon points="139,22 53,164 303,178 121,180 275,34 253,44 119,70 193,60 219,26" fill="#cec79a" opacity="0.83"/>
<path d="M146,101 C38,5 72,203 186,149 L14,109 Q34,113 228,163 Q216,103 74,109 L94,213 L242,181 Z" fill="#979120" opacity="0.28" stroke="none"/>
<ellipse cx="109" cy="200" rx="91" ry="18" fill="#3f73c3" opacity="0.94"/>
<rect x="110" y="209" width="80" height="18" rx="6" fill="#282b1c" opacity="0.31"/>
<rect x="150" y="109" width="46" height="68" rx="6" fill="#02ee44" opacity="0.15"/>
<circle cx="126" cy="25" r="31" fill="#9e166c" opacity="0.13"/>
<path d="M20,91 L200,107 C60,175 14,137 112,83 Q228,115 118,73 C138,41 140,87 30,217 Q114,121 52,59 L168,183 L92,115 Z" fill="#9e7292" opacity="0.38" stroke="none"/>
<polygon points="66,157 132,135 278,173 56,11 106,129 108,151" fill="#ef5475" opacity="0.19"/>
<ellipse cx="63" cy="214" rx="25" ry="13" fill="#56fa05" opacity="0.20"/>
<path d="M72,47 L60,179 Q240,119 162,197 C118,197 280,175 74,213 Z" fill="#634526" opacity="0.56" stroke="none"/>
<ellipse cx="37" cy="212" rx="65" ry="18" fill="#d2653b" opacity="0.16"/>
<polygon points="301,156 231,210 49,176 11,70 117,56 47,110 249,132 83,66 189,120" fill="#f76774" opacity="0.39"/>
<rect x="108" y="215" width="44" height="50" rx="4" fill="#68442a" opacity="0.51"/>
<path d="M20,7 L136,131 Q252,7 78,101 C34,161 36,191 118,97 C202,45 76,35 158,197 L242,57 C6,109 168,63 282,169 Z" fill="#c42912" opacity="0.51" stroke="none"/>
<polygon points="144,79 258,157 68,55 86,57 120,99 42,129" fill="#f3388b" opacity="0.73"/>
<polygon points="96,3 146,121 276,143 230,113 200,87 122,101" fill="#f03b9b" opacity="0.49"/>
<rect x="213" y="124" width="21" height="55" rx="5" fill="#5a42ab" opacity="0.56"/>
<circle cx="221" cy="12" r="14" fill="#fef7b3" opacity="0.64"/>
<polygon points="222,217 0,3 178,21 308,67 262,69 40,207" fill="#bf94e1" opacity="0.59"/>
<ellipse cx="11" cy="190" rx="95" ry="15" fill="#d10571" opacity="0.45"/>
<rect x="68" y="3" width="18" height="72" rx="0" fill="#b472c2" opacity="0.35"/>
<ellipse cx="108" cy="175" rx="10" ry="50" fill="#ee2aaa" opacity="0.83"/>
<ellipse cx="137" cy="116" rx="33" ry="39" fill="#3a4b3f" opacity="0.15"/>
<circle cx="314" cy="213" r="5" fill="#dceb08" opacity="0.60"/>
<polygon points="15,202 153,52 243,106 29,180 215,2" fill="#a26f4e" opacity="0.59"/>
<rect x="30" y="153" width="100" height="55" rx="2" fill="#4afe0c" opacity="0.88"/>
<ellipse cx="6" cy="145" rx="58" ry="48" fill="#f01f34" opacity="0.84"/>
<ellipse cx="203" cy="102" rx="61" ry="43" fill="#60afb1" opacity="0.59"/>
</svg>
