<svg xmlns="http://www.w3.org/2000/svg" viewBox="0 0 320 220" width="320" height="220">
<defs>
<linearGradient id="gr0dba" x1="0%" y1="0%" x2="47%" y2="82%"><stop offset="0%" stop-color="#dab1d1"/><stop offset="100%" stop-color="#cc40fc"/></linearGradient>
<linearGradient id="gr1195" x1="0%" y1="0%" x2="22%" y2="21%"><stop offset="0%" stop-color="#6985f0"/><stop offset="100%" stop-color="#98608f"/></linearGradient>
<linearGradient id="gr2024" x1="0%" y1="0%" x2="1%" y2="8%"><stop offset="0%" stop-color="#000d33"/><stop offset="100%" stop-color="#acf0f6"/></linearGradient>
<linearGradient id="gr3217" x1="0%" y1="0%" x2="28%" y2="27%"><stop offset="0%" stop-color="#a1c88a"/><stop offset="100%" stop-color="#071e61"/></linearGradient>
</defs>
<rect width="320" height="220" fill="#ca6f5e"/>
<circle cx="114" cy="217" r="61" fill="#897640" opacity="0.65"/>
<polygon points="167,186 49,168 11,70 117,120 175,162" fill="#3fbac6" opacity="0.67"/>
<ellipse cx="150" cy="217" rx="12" ry="29" fill="#30eec4" opacity="0.51"/>
<path d="M219,130 L63,218 Q163,166 13,72 C145,84 171,62 149,32 L89,140 Z" fill="#112381" opacity="0.61" stroke="none"/>
<polygon points="23,10 33,188 123,82 293,44 95,210 105,112 259,70 109,200 103,98" fill="#065036" opacity="0.94"/>
<circle cx="302" cy="189" r="21" fill="#1cc0dc" opacity="0.41"/>
<circle cx="196" cy="179" r="47" fill="#88fd82" opacity="0.19"/>
<circle cx="170" cy="101" r="29" fill="#10ed78" opacity="0.93"/>
<path d="M288,119 C84,27 102,65 264,151 L316,91 C48,83 34,89 292,11 Z" fill="#89923e" opacity="0.49" stroke="none"/>
<polygon points="266,181 268,199 30,29 64,167 50,117 244,107" fill="#cc205d" opacity="0.72"/>
<rect x="39" y="90" width="63" height="65" rx="3" fill="#e65fed" opacity="0.66"/>
<ellipse cx="111" cy="90" rx="31" ry="55" fill="#60bd35" opacity="0.75"/>
<rect x="312" y="43" width="26" height="65" rx="8" fill="#e57716" opacity="0.36"/>
<rect x="224" y="95" width="32" height="48" rx="0" fill="#33b97e" opacity="0.77"/>
<path d="M72,19 C60,127 270,85 240,95 C292,95 118,193 216,131 Q76,151 30,121 L114,49 Q70,129 104,47 Z" fill="#f248e6" opacity="0.27" stroke="none"/>
<path d="M203,186 L239,154 Q275,150 189,16 Q65,76 219,206 L191,102 L291,38 Q199,50 145,88 Z" fill="#372db1" opacity="0.82" stroke="none"/>
<polygon points="15,30 89,36 307,198 221,40 215,18" fill="#9efc8e" opacity="0.63"/>
<polygon points="165,28 223,14 297,168 195,54 237,136 295,22 113,0" fill="#8ff94c" opacity="0.41"/>
<rect x="208" y="127" width="60" height="81" rx="0" fill="#6a502e" opacity="0.33"/>
<path d="M120,7 Q44,127 190,157 L210,25 L230,105 C122,93 252,151 78,117 Z" fill="#2bb596" opacity="0.23" stroke="none"/>
<circle cx="89" cy="96" r="6" fill="#0269cf" opacity="0.27"/>
<circle cx="215" cy="118" r="32" fill="#28631d" opacity="0.12"/>
<ellipse cx="101" cy="16" rx="83" ry="28" fill="#0db87b" opacity="0.89"/>
<circle cx="134" cy="157" r="5" fill="#1e7fb4" opacity="0.19"/>
<rect x="28" y="47" width="40" height="37" rx="4" fill="#c2d79a" opacity="0.86"/>
<path d="M260,3 C312,71 106,137 300,151 C32,211 146,1 20,63 Q264,207 122,65 Z" fill="#612a82" opacity="0.55" stroke="none"/>
<ellipse cx="213" cy="120" rx="89" ry="17" fill="#7901ab" opacity="0.22"/>
<polygon points="157,24 151,150 97,176 59,118 37,64" fill="#408fa4" opacity="0.44"/>
<rect x="308" y="43" width="80" height="58" rx="8" fill="#ab9cf2" opacity="0.10"/>
<rect x="156" y="55" width="32" height="58" rx="0" fill="#7a9ada" opacity="0.16"/>
<rect x="260" y="171" width="100" height="10" rx="8" fill="#5155c2" opacity="0.51"/>
<path d="M172,71 L288,23 C148,15 102,85 264,19 L252,155 Q176,163 98,85 Z" fill="#276daa" opacity="0.39" stroke="none"/>
<polygon points="88,35 202,133 76,155 286,205 0,199 178,173 116,35 134,213 168,55 282,157" fill="#2b62f3" opacity="0.93"/>
<path d="M309,204 C185,136 275,2 61,212 L257,84 Q5,108 319,70 Z" fill="#35000b" opacity="0.11" stroke="none"/>
<ellipse cx="102" cy="41" rx="46" ry="26" fill="#03f0d4" opacity="0.78"/>
<rect x="107" y="6" width="115" height="41" rx="3" fill="#ba03d1" opacity="0.47"/>
<polygon points="246,145 24,43 202,41 140,199 158,1 256,179" fill="#acdd99" opacity="0.65"/>
<circle cx="3" cy="146" r="20" fill="#235c29" opacity="0.77"/>
<circle cx="241" cy="72" r="8" fill="#8d6a27" opacity="0.59"/>
<path d="M303,26 Q83,206 317,124 L129,44 L69,216 Z" fill="#0992b5" opacity="0.54" stroke="none"/>
<rect x="212" y="95" width="38" height="32" rx="8" fill="#2e3912" opacity="0.93"/>
<path d="M60,183 Q304,3 34,193 L182,101 L10,213 C222,205 192,107 306,77 C262,73 40,115 26,101 Q174,85 208,147 L132,51 Z" fill="#70bafa" opacity="0.49" stroke="none"/>
<ellipse cx="247" cy="114" rx="55" ry="6" fill="#82bf3d" opacity="0.28"/>
<rect x="224" y="135" width="10" height="35" rx="4" fill="#f5cc3e" opacity="0.58"/>
<ellipse cx="200" cy="7" rx="74" ry="10" fill="#b6b3a6" opacity="0.25"/>
<polygon points="176,207 162,41 100,155 310,29 216,63 138,77 268,67 286,5 64,147 242,193" fill="#6f92ab" opacity="0.79"/>
<ellipse cx="173" cy="124" rx="41" ry="51" fill="#8bb4c3" opacity="0.61"/>
<polygon points="309,80 111,94 57,92 19,22 61,48" fill="#eed01c" opacity="0.66"/>
<ellipse cx="236" cy="103" rx="68" ry="16" fill="#763aaa" opacity="0.15"/>
<polygon points="20,219 102,57 264,199 314,69 252,195 270,209 112,123 162,69" fill="#f89b3f" opacity="0.56"/>
<path d="M157,104 Q161,192 251,186 C159,50 233,148 67,142 L39,142 Z" fill="#1513f3" opacity="0.58" stroke="none"/>
<rect x="174" y="157" width="76" height="68" rx="6" fill="#dff55c" opacity="0.50"/>
<path d="M86,121 C42,41 236,147 62,73 L82,65 C102,29 8,111 314,5 Z" fill="#f40084" opacity="0.40" stroke="none"/>
<path d="M85,200 C217,60 51,162 157,96 Q289,56 315,66 L31,58 Q3,94 237,12 C177,208 11,74 245,32 Q57,8 147,10 L247,126 Z" fill="#2c5b2b" opacity="0.12" stroke="none"/>
<rect x="318" y="125" width="54" height="70" rx="10" fill="#0225ec" opacity="0.70"/>
<polygon points="141,204 71,158 81,208 107,22 21,176 79,178 89,52" fill="#6c4314" opacity="0.60"/>
<path d="M280,87 C204,99 30,93 128,83 L308,99 L104,59 Q156,23 174,105 C194,45 68,191 22,49 L106,61 Z" fill="#244736" opacity="0.49" stroke="none"/>
<polygon points="32,63 82,205 148,167 102,209 136,27 314,189" fill="#93dc9b" opacity="0.40"/>
<ellipse cx="85" cy="56" rx="47" ry="9" fill="#6a23ab" opacity="0.78"/>
<polygon points="93,4 215,146 33,80 251,6 37,164 95,114 41,212 67,62 173,40" fill="#64f9a4" opacity="0.45"/>
<path d="M28,171 Q16,183 194,1 Q278,81 248,15 C172,123 254,133 32,11 L20,219 L8,71 L124,199 Z" fill="#ddb4da" opacity="0.76" stroke="none"/>
<circle cx="143" cy="194" r="56" fill="#763755" opacity="0.18"/>
<path d="M221,204 L97,88 C165,216 159,202 233,20 L109,124 C49,48 203,170 117,32 C249,212 147,182 61,156 Z" fill="#82c4f3" opacity="0.68" stroke="none"/>
<polygon points="219,182 69,180 63,210 9,136 291,214 77,16 263,214 209,208 43,34" fill="#e7daea" opacity="0.87"/>
<polygon points="153,88 51,70 285,48 215,78 225,40 59,42 229,140" fill="#1b19f0" opacity="0.88"/>
<path d="M52,43 C40,71 90,73 28,119 Q272,147 2,61 C278,53 248,19 298,33 L126,49 Z" fill="#75ed72" opacity="0.59" stroke="none"/>
<circle cx="73" cy="140" r="74" fill="#75ecbf" opacity="0.88"/>
<ellipse cx="7" cy="82" rx="93" ry="55" fill="#f0628d" opacity="0.65"/>
<rect x="112" y="179" width="52" height="73" rx="0" fill="#cd8ace" opacity="0.47"/>
<path d="M216,47 Q12,79 30,53 Q306,85 180,207 L232,83 Q28,87 238,169 Z" fill="#964436" opacity="0.46" stroke="none"/>
<polygon points="132,187 86,145 312,219 298,105 108,75 254,173 32,199 210,65" fill="#0858ef" opacity="0.29"/>
</svg>
